<svg width="201" height="107" viewBox="0 0 201 107" fill="none" xmlns="http://www.w3.org/2000/svg">
<mask id="mask0_145_264" style="mask-type:luminance" maskUnits="userSpaceOnUse" x="100" y="35" width="36" height="36">
<path d="M135.89 35.2578H100.378V70.2276H135.89V35.2578Z" fill="white"/>
</mask>
<g mask="url(#mask0_145_264)">
<path d="M138.622 33.2139H99.0435V75.6886H138.622V33.2139Z" fill="#A2C579"/>
<path d="M102.982 32.3838V74.2198" stroke="#000116" stroke-width="0.5" stroke-linecap="square" stroke-linejoin="round"/>
<path d="M105.746 32.5117V74.3796" stroke="#000116" stroke-width="0.5" stroke-linecap="square" stroke-linejoin="round"/>
<path d="M108.541 32.6387V74.5066" stroke="#000116" stroke-width="0.5" stroke-linecap="square" stroke-linejoin="round"/>
<path d="M111.336 32.7988V74.6348" stroke="#000116" stroke-width="0.5" stroke-linecap="square" stroke-linejoin="round"/>
<path d="M114.1 32.9268V74.7947" stroke="#000116" stroke-width="0.5" stroke-linecap="square" stroke-linejoin="round"/>
<path d="M116.895 33.0547V74.9226" stroke="#000116" stroke-width="0.5" stroke-linecap="square" stroke-linejoin="round"/>
<path d="M119.659 33.2139V75.0818" stroke="#000116" stroke-width="0.5" stroke-linecap="square" stroke-linejoin="round"/>
<path d="M122.454 33.3418V75.2097" stroke="#000116" stroke-width="0.5" stroke-linecap="square" stroke-linejoin="round"/>
<path d="M125.217 33.501V75.3369" stroke="#000116" stroke-width="0.5" stroke-linecap="square" stroke-linejoin="round"/>
<path d="M128.013 33.6289V75.4968" stroke="#000116" stroke-width="0.5" stroke-linecap="square" stroke-linejoin="round"/>
<path d="M130.808 33.7568V75.6247" stroke="#000116" stroke-width="0.5" stroke-linecap="square" stroke-linejoin="round"/>
<path d="M133.571 33.917V75.753" stroke="#000116" stroke-width="0.5" stroke-linecap="square" stroke-linejoin="round"/>
<path d="M111.146 46.7233C111.146 42.9136 108.074 39.8252 104.285 39.8252C100.495 39.8252 97.4235 42.9136 97.4235 46.7233C97.4235 50.5331 100.495 53.6215 104.285 53.6215C108.074 53.6215 111.146 50.5331 111.146 46.7233Z" fill="#EDB324"/>
<path d="M104.285 42.9864C105.198 44.5321 106.488 45.8181 108.033 46.7229C106.486 47.6389 105.196 48.9357 104.285 50.4914C103.367 48.93 102.065 47.6323 100.505 46.7229C102.041 45.8172 103.32 44.5308 104.221 42.9864M104.221 37.5893C104.221 40.0117 103.264 42.3348 101.56 44.0477C99.8566 45.7606 97.5459 46.7229 95.1365 46.7229C97.5459 46.7229 99.8566 47.6852 101.56 49.3981C103.264 51.111 104.221 53.4342 104.221 55.8566C104.23 53.4312 105.194 51.1081 106.902 49.3962C108.611 47.6842 110.925 46.7229 113.338 46.7229C110.925 46.706 108.618 45.7285 106.921 44.0046C105.224 42.2806 104.276 39.9508 104.285 37.5254L104.221 37.5893Z" fill="#000116"/>
<path d="M122.517 75.4338C122.517 71.0125 120.771 66.7723 117.661 63.646C114.551 60.5196 110.334 58.7633 105.936 58.7633C110.334 58.7633 114.551 57.0069 117.661 53.8806C120.771 50.7543 122.517 46.5141 122.517 42.0928C122.517 46.5085 124.26 50.7439 127.363 53.8693C130.465 56.9947 134.675 58.7548 139.067 58.7633C136.891 58.7633 134.736 59.1947 132.726 60.0329C130.716 60.871 128.891 62.0995 127.353 63.6479C125.816 65.1963 124.598 67.0343 123.768 69.0567C122.938 71.0791 122.513 73.2461 122.517 75.4338Z" fill="#EDB324"/>
<path d="M122.517 47.4247C123.546 49.9772 125.074 52.296 127.012 54.2435C128.949 56.191 131.255 57.7275 133.794 58.7619C131.255 59.7962 128.949 61.3327 127.012 63.2802C125.074 65.2277 123.546 67.5466 122.517 70.0991C121.487 67.5426 119.954 65.2211 118.011 63.2733C116.068 61.3254 113.755 59.7911 111.209 58.7619C113.755 57.7327 116.068 56.1984 118.011 54.2505C119.954 52.3026 121.487 49.9812 122.517 47.4247ZM122.517 39.792C122.518 42.2994 122.023 44.7819 121.063 47.096C120.103 49.4101 118.696 51.5099 116.924 53.2739C115.152 55.038 113.049 56.4313 110.738 57.3733C108.427 58.3152 105.953 58.7872 103.459 58.7619C105.953 58.7366 108.427 59.2085 110.738 60.1505C113.049 61.0925 115.152 62.4858 116.924 64.2498C118.696 66.0139 120.103 68.1137 121.063 70.4278C122.023 72.7419 122.518 75.2244 122.517 77.7318C122.517 72.7007 124.505 67.8756 128.044 64.318C131.582 60.7605 136.381 58.7619 141.386 58.7619C136.381 58.7619 131.582 56.7633 128.044 53.2057C124.505 49.6482 122.517 44.8231 122.517 39.792Z" fill="#000116"/>
</g>
<path d="M135.001 36.1517V69.4608H101.235V36.1517H135.001ZM136.462 34.6826H99.7741V70.834H136.462V34.6826Z" fill="#000116"/>
<mask id="mask1_145_264" style="mask-type:luminance" maskUnits="userSpaceOnUse" x="64" y="0" width="38" height="37">
<path d="M101.235 0H64.5156V36.1514H101.235V0Z" fill="white"/>
</mask>
<g mask="url(#mask1_145_264)">
<path d="M133.317 -4.85449H32.4335V41.0054H133.317V-4.85449Z" fill="#057253"/>
<path d="M78.6508 37.9705C77.9979 35.2198 77.1811 32.511 76.2049 29.8588C75.4743 27.7191 74.5849 25.0365 73.4414 21.5235C71.5176 16.4124 70.4444 11.0175 70.265 5.5556C70.265 3.73525 70.8367 -0.831582 71.1226 -3.03516L81.4778 -1.21481V39.0244L78.6508 37.9705Z" fill="#0C9E79"/>
<path d="M71.9167 -2.17184L80.9061 -0.606983V37.9715L79.2861 37.5244C78.6285 34.8868 77.8332 32.2857 76.9037 29.7321C76.1731 27.5924 75.2837 24.9098 74.1402 21.3968C72.2109 16.3759 71.1371 11.0641 70.9638 5.68437C70.9638 4.11951 71.3767 0.255276 71.6944 -2.07604M70.5191 -3.99219C70.265 -2.42733 69.5662 3.35306 69.5344 5.58857C69.6631 11.1288 70.7375 16.6056 72.7108 21.78C75.8873 31.8398 77.3167 35.0334 77.9837 38.5464L82.1766 40.1112V-1.85249L70.5191 -3.99219Z" fill="#000116"/>
<path d="M85.8295 39.249C86.0499 33.084 87.1189 26.9794 89.006 21.1094C89.9589 17.9159 90.8801 15.5207 91.6106 13.6365C93.0208 10.6433 93.7376 7.36755 93.7071 4.0557C93.7071 2.45891 93.3577 -0.479193 93.1989 -1.94824L104.571 -1.4692C104.158 -0.830482 102.442 2.04374 102.188 2.42697C98.7979 8.67307 95.9497 15.2015 93.6753 21.9398C92.538 24.6556 91.7687 27.5129 91.3883 30.4347C91.1805 33.1133 91.1805 35.804 91.3883 38.4825L85.8295 39.249Z" fill="#0C9E79"/>
<path d="M93.9612 -1.05381L103.236 -0.670572L102.569 0.415248L101.521 2.17172C98.0702 8.45612 95.1892 15.0402 92.913 21.8442C91.7522 24.5985 90.972 27.4997 90.5942 30.4669C90.4198 32.9655 90.4198 35.4732 90.5942 37.9718L86.5283 38.4189C86.9005 32.6056 87.967 26.8584 89.7048 21.3013C90.6577 18.1077 91.5154 15.8722 92.2777 13.9241C93.6894 10.929 94.4269 7.65774 94.4377 4.34336C94.4377 2.97011 94.2153 0.702671 94.0248 -0.894122M92.373 -2.42704C92.373 -1.37316 92.9765 2.49108 92.9765 4.34336C92.9765 10.5708 90.8483 12.2954 88.3072 21.0458C86.275 27.2309 85.2036 33.694 85.1307 40.2073L92.1824 39.4089C91.9505 36.5394 91.9505 33.6557 92.1824 30.7862C92.5445 27.94 93.2926 25.157 94.4059 22.5149C96.6549 15.8026 99.4931 9.30464 102.887 3.09786C103.586 1.9801 105.333 -1.02187 106.063 -1.88414L92.5318 -2.45898L92.373 -2.42704Z" fill="#000116"/>
<path d="M107.398 -2.0127C106.762 -1.15043 105.047 1.85155 104.221 2.9693C100.855 9.18962 98.0174 15.6851 95.74 22.3863C94.6546 25.0358 93.9178 27.8164 93.5483 30.6577C93.3336 33.5279 93.3336 36.4102 93.5483 39.2804" stroke="#000116" stroke-width="0.5" stroke-miterlimit="10"/>
<path d="M109.462 -1.94824C108.827 -1.05404 107.08 1.94793 106.286 3.06569C102.879 9.2662 100.041 15.7653 97.8047 22.4827C96.6914 25.1248 95.9433 27.9078 95.5812 30.7541C95.3493 33.6236 95.3493 36.5073 95.5812 39.3768" stroke="#000116" stroke-width="0.5" stroke-miterlimit="10"/>
<path d="M111.495 -1.85254C110.86 -0.958335 109.113 2.04365 108.319 3.1614C104.912 9.36191 102.073 15.861 99.8376 22.5784C98.7201 25.2191 97.9718 28.0027 97.6141 30.8498C97.3822 33.7193 97.3822 36.603 97.6141 39.4725" stroke="#000116" stroke-width="0.5" stroke-miterlimit="10"/>
<path d="M113.528 -1.75684C112.893 -0.862632 111.146 2.13934 110.352 3.25709C106.963 9.45556 104.125 15.9424 101.871 22.6422C100.773 25.3008 100.025 28.0922 99.6471 30.9455C99.4148 33.8043 99.4148 36.6774 99.6471 39.5362" stroke="#000116" stroke-width="0.5" stroke-miterlimit="10"/>
<path d="M76.2367 38.5141C75.5696 35.0012 74.2037 31.8076 70.9638 21.7478C68.9905 16.5734 67.916 11.0966 67.7873 5.55634C67.7873 3.44858 68.4862 -2.33181 68.7403 -4.02441" stroke="#000116" stroke-width="0.5" stroke-miterlimit="10"/>
<path d="M74.0767 38.5144C73.4096 34.9696 71.9167 31.776 68.7403 21.7481C66.7729 16.583 65.6987 11.1178 65.5638 5.58857C65.5638 3.4808 66.2627 -2.26765 66.5168 -3.99219" stroke="#000116" stroke-width="0.5" stroke-miterlimit="10"/>
<path d="M71.9167 38.4829C71.2497 34.97 69.8838 31.7444 66.6438 21.7166C64.6729 16.5414 63.5986 11.065 63.4674 5.52509C63.4674 3.38539 64.1662 -2.36306 64.4203 -4.05566" stroke="#000116" stroke-width="0.5" stroke-miterlimit="10"/>
<path d="M69.7567 38.4497C69.0897 34.9368 67.7238 31.7432 64.4839 21.6834C62.5105 16.5089 61.4361 11.0321 61.3074 5.49189C61.3074 3.38412 62.0062 -2.39627 62.2603 -4.08887" stroke="#000116" stroke-width="0.5" stroke-miterlimit="10"/>
<path d="M67.5968 38.4506C66.9297 34.9057 65.5638 31.7121 62.3874 21.5565C60.4412 16.4518 59.3673 11.0531 59.211 5.58857C59.211 3.4808 59.9098 -2.26765 60.1639 -3.99219" stroke="#000116" stroke-width="0.5" stroke-miterlimit="10"/>
<path d="M83.479 40.0787C83.5518 33.5653 84.6232 27.1022 86.6554 20.9172C89.1966 12.1668 91.3565 10.4422 91.3248 4.21473C91.3248 2.36245 90.8483 -1.50178 90.7212 -2.55566" stroke="#000116" stroke-width="0.5" stroke-miterlimit="10"/>
<path d="M80.9061 40.0787C80.9789 33.5653 82.0503 27.1022 84.0825 20.9172C86.6237 12.1668 88.7836 10.4422 88.7519 4.21473C88.7519 2.36245 88.2754 -1.50178 88.1483 -2.55566" stroke="#000116" stroke-width="0.5" stroke-miterlimit="10"/>
<path d="M81.7319 19.7672C84.146 11.9749 86.1154 10.1865 86.0836 4.18252C86.0836 2.33024 85.6072 -1.53401 85.4801 -2.58789" stroke="#000116" stroke-width="0.5" stroke-miterlimit="10"/>
<path d="M81.446 13.5717C82.8537 10.6444 83.5814 7.43391 83.5743 4.18252C83.5743 2.33024 83.0978 -1.53401 82.9707 -2.58789" stroke="#000116" stroke-width="0.5" stroke-miterlimit="10"/>
</g>
<path d="M99.7741 1.46905V34.6823H66.0085V1.46905H99.7741ZM101.235 0H64.5156V36.1514H101.235V0Z" fill="#000116"/>
<mask id="mask2_145_264" style="mask-type:luminance" maskUnits="userSpaceOnUse" x="100" y="0" width="36" height="36">
<path d="M135.827 0.638672H100.409V35.5446H135.827V0.638672Z" fill="white"/>
</mask>
<g mask="url(#mask2_145_264)">
<path d="M168.544 -4.85449H67.6603V41.0054H168.544V-4.85449Z" fill="#CF3827"/>
<path d="M138.781 -39.1215C146.024 -39.1278 153.105 -36.9731 159.129 -32.9301C165.153 -28.8872 169.848 -23.1379 172.62 -16.4103C175.391 -9.68281 176.115 -2.27963 174.699 4.86166C173.283 12.0029 169.791 18.5611 164.665 23.7057C159.539 28.8502 153.01 32.3497 145.905 33.761C138.799 35.1724 131.437 34.432 124.75 31.6337C118.064 28.8353 112.354 24.105 108.343 18.0416C104.332 11.9782 102.201 4.85455 102.22 -2.42725C102.262 -12.1573 106.129 -21.4758 112.979 -28.35C119.828 -35.2243 129.103 -39.0963 138.781 -39.1215ZM138.781 -39.6006C131.449 -39.6006 124.282 -37.4148 118.186 -33.3196C112.09 -29.2244 107.339 -23.4038 104.533 -16.5937C101.728 -9.78368 100.994 -2.29011 102.424 4.9394C103.854 12.1689 107.385 18.8096 112.569 24.0218C117.753 29.234 124.358 32.7835 131.549 34.2216C138.74 35.6596 146.193 34.9216 152.967 32.1007C159.74 29.2799 165.529 24.5031 169.603 18.3742C173.676 12.2453 175.85 5.03969 175.85 -2.33145C175.85 -12.2158 171.944 -21.6954 164.993 -28.6847C158.041 -35.674 148.612 -39.6006 138.781 -39.6006Z" fill="#000116"/>
<path d="M138.781 -36.2156C145.428 -36.2156 151.925 -34.2339 157.452 -30.5212C162.978 -26.8086 167.286 -21.5316 169.829 -15.3576C172.373 -9.18363 173.039 -2.38996 171.742 4.1643C170.445 10.7185 167.244 16.739 162.544 21.4644C157.844 26.1897 151.856 29.4077 145.337 30.7115C138.818 32.0152 132.061 31.3461 125.92 28.7887C119.779 26.2314 114.531 21.9007 110.838 16.3442C107.145 10.7878 105.174 4.25523 105.174 -2.42743C105.182 -11.386 108.726 -19.9752 115.027 -26.3099C121.327 -32.6446 129.87 -36.2071 138.781 -36.2156ZM138.781 -36.7265C132.034 -36.7265 125.438 -34.7149 119.828 -30.9461C114.217 -27.1773 109.845 -21.8205 107.263 -15.5531C104.681 -9.2858 104.005 -2.38939 105.321 4.26398C106.638 10.9174 109.887 17.0289 114.658 21.8257C119.429 26.6225 125.508 29.8892 132.125 31.2126C138.743 32.536 145.602 31.8568 151.836 29.2608C158.07 26.6648 163.398 22.2686 167.146 16.6281C170.895 10.9877 172.896 4.35629 172.896 -2.42743C172.9 -6.93284 172.02 -11.3948 170.307 -15.5581C168.595 -19.7214 166.082 -23.5041 162.913 -26.6899C159.744 -29.8757 155.982 -32.402 151.841 -34.1242C147.7 -35.8464 143.262 -36.7307 138.781 -36.7265Z" fill="#000116"/>
<path d="M138.781 -33.3725C144.868 -33.3725 150.819 -31.5576 155.881 -28.1572C160.943 -24.7568 164.888 -19.9237 167.218 -14.2691C169.547 -8.61451 170.157 -2.39234 168.969 3.61057C167.781 9.61347 164.85 15.1275 160.545 19.4554C156.241 23.7832 150.756 26.7305 144.786 27.9246C138.815 29.1186 132.626 28.5058 127.002 26.1636C121.378 23.8214 116.571 19.8549 113.188 14.7659C109.806 9.6769 108.001 3.69385 108.001 -2.42666C108.009 -10.6314 111.255 -18.4977 117.026 -24.2993C122.796 -30.101 130.62 -33.3641 138.781 -33.3725ZM138.781 -33.8515C132.6 -33.8452 126.56 -31.9968 121.424 -28.54C116.289 -25.0831 112.287 -20.173 109.927 -14.4303C107.566 -8.68763 106.951 -2.37015 108.161 3.72357C109.37 9.8173 112.35 15.4137 116.722 19.8053C121.095 24.197 126.664 27.1868 132.726 28.3967C138.789 29.6067 145.072 28.9825 150.781 26.6031C156.491 24.2237 161.37 20.1958 164.803 15.0287C168.236 9.86163 170.069 3.78723 170.069 -2.42666C170.069 -6.55612 169.259 -10.6451 167.686 -14.4598C166.114 -18.2746 163.809 -21.7402 160.903 -24.6587C157.997 -27.5772 154.548 -29.8913 150.752 -31.4686C146.956 -33.046 142.888 -33.8557 138.781 -33.8515Z" fill="#000116"/>
<path d="M138.781 -33.3725C144.868 -33.3725 150.819 -31.5576 155.881 -28.1572C160.943 -24.7568 164.888 -19.9237 167.218 -14.2691C169.547 -8.61451 170.157 -2.39234 168.969 3.61057C167.781 9.61347 164.85 15.1275 160.545 19.4554C156.241 23.7832 150.756 26.7305 144.786 27.9246C138.815 29.1186 132.626 28.5058 127.002 26.1636C121.378 23.8214 116.571 19.8549 113.188 14.7659C109.806 9.6769 108.001 3.69385 108.001 -2.42666C108.009 -10.6314 111.255 -18.4977 117.026 -24.2993C122.796 -30.101 130.62 -33.3641 138.781 -33.3725ZM138.781 -33.8515C132.6 -33.8452 126.56 -31.9968 121.424 -28.54C116.289 -25.0831 112.287 -20.173 109.927 -14.4303C107.566 -8.68763 106.951 -2.37015 108.161 3.72357C109.37 9.8173 112.35 15.4137 116.722 19.8053C121.095 24.197 126.664 27.1868 132.726 28.3967C138.789 29.6067 145.072 28.9825 150.781 26.6031C156.491 24.2237 161.37 20.1958 164.803 15.0287C168.236 9.86163 170.069 3.78723 170.069 -2.42666C170.069 -6.55612 169.259 -10.6451 167.686 -14.4598C166.114 -18.2746 163.809 -21.7402 160.903 -24.6587C157.997 -27.5772 154.548 -29.8913 150.752 -31.4686C146.956 -33.046 142.888 -33.8557 138.781 -33.8515Z" fill="#000116"/>
<path d="M138.781 -30.3709C144.278 -30.3709 149.652 -28.732 154.222 -25.6615C158.793 -22.591 162.355 -18.2267 164.459 -13.1206C166.563 -8.01456 167.113 -2.39599 166.041 3.02459C164.968 8.44518 162.321 13.4243 158.434 17.3323C154.547 21.2403 149.595 23.9017 144.203 24.98C138.812 26.0582 133.223 25.5048 128.145 23.3898C123.066 21.2748 118.725 17.6931 115.671 13.0978C112.617 8.50245 110.987 3.09979 110.987 -2.42698C110.995 -9.83556 113.926 -16.9383 119.137 -22.177C124.347 -27.4156 131.412 -30.3624 138.781 -30.3709ZM138.781 -30.8818C133.189 -30.8566 127.729 -29.1663 123.092 -26.0244C118.454 -22.8824 114.847 -18.4296 112.724 -13.228C110.601 -8.02635 110.059 -2.30909 111.165 3.20216C112.272 8.71342 114.977 13.7716 118.94 17.7383C122.903 21.7051 127.946 24.4025 133.433 25.4901C138.92 26.5777 144.604 26.0068 149.768 23.8494C154.932 21.692 159.345 18.0449 162.449 13.3683C165.553 8.69175 167.21 3.1954 167.21 -2.42698C167.21 -9.97368 164.228 -17.2113 158.92 -22.5476C153.613 -27.8839 146.414 -30.8818 138.908 -30.8818H138.781Z" fill="#000116"/>
<path d="M138.781 -27.3051C143.676 -27.3115 148.463 -25.8578 152.537 -23.128C156.61 -20.3982 159.787 -16.515 161.664 -11.9697C163.542 -7.42436 164.037 -2.42121 163.085 2.40676C162.134 7.23472 159.78 11.6705 156.321 15.153C152.861 18.6354 148.452 21.008 143.652 21.9705C138.851 22.9331 133.874 22.4423 129.351 20.5602C124.827 18.6782 120.961 15.4896 118.241 11.3977C115.52 7.30583 114.068 2.49467 114.068 -2.4271C114.076 -9.01705 116.682 -15.3352 121.314 -19.9979C125.945 -24.6607 132.226 -27.2882 138.781 -27.3051ZM138.781 -27.7842C133.794 -27.7779 128.921 -26.2853 124.777 -23.4952C120.634 -20.7051 117.406 -16.7427 115.502 -12.1087C113.598 -7.47478 113.103 -2.37732 114.08 2.53936C115.057 7.45605 117.461 11.9712 120.99 15.5143C124.518 19.0574 129.012 21.4692 133.904 22.445C138.795 23.4209 143.865 22.9169 148.472 20.9967C153.078 19.0765 157.015 15.8265 159.785 11.6572C162.555 7.48795 164.034 2.58669 164.034 -2.4271C164.034 -9.15222 161.376 -15.6019 156.646 -20.3573C151.917 -25.1126 145.502 -27.7842 138.813 -27.7842H138.781Z" fill="#000116"/>
<path d="M138.781 -24.0483C143.034 -24.0483 147.192 -22.7803 150.728 -20.4046C154.264 -18.0289 157.021 -14.6522 158.648 -10.7015C160.276 -6.75089 160.702 -2.40372 159.872 1.79026C159.042 5.98424 156.994 9.83665 153.987 12.8603C150.979 15.884 147.148 17.9432 142.976 18.7774C138.805 19.6117 134.481 19.1835 130.551 17.5471C126.622 15.9107 123.263 13.1395 120.9 9.58404C118.538 6.02855 117.276 1.84844 117.276 -2.4277C117.285 -8.15924 119.553 -13.6536 123.584 -17.7064C127.615 -21.7592 133.08 -24.0398 138.781 -24.0483ZM138.781 -24.5273C134.437 -24.5084 130.197 -23.1962 126.595 -20.7564C122.993 -18.3166 120.19 -14.8585 118.541 -10.8187C116.892 -6.77888 116.47 -2.33843 117.329 1.94215C118.188 6.22272 120.289 10.1515 123.367 13.2326C126.445 16.3137 130.361 18.409 134.623 19.254C138.884 20.099 143.299 19.6558 147.31 17.9803C151.321 16.3049 154.748 13.4723 157.159 9.84016C159.57 6.20801 160.857 1.9391 160.857 -2.4277C160.857 -5.33255 160.287 -8.20891 159.181 -10.8922C158.074 -13.5756 156.452 -16.0132 154.408 -18.0658C152.363 -20.1184 149.936 -21.7455 147.266 -22.8543C144.595 -23.963 141.734 -24.5315 138.844 -24.5273H138.781Z" fill="#000116"/>
<path d="M138.781 -20.6948C142.376 -20.7011 145.892 -19.6351 148.884 -17.6317C151.876 -15.6283 154.21 -12.7776 155.59 -9.44024C156.97 -6.10288 157.334 -2.42894 156.637 1.11667C155.939 4.66229 154.211 7.92019 151.671 10.4781C149.132 13.036 145.894 14.779 142.369 15.4865C138.844 16.1939 135.189 15.834 131.867 14.4523C128.545 13.0707 125.706 10.7293 123.708 7.72461C121.71 4.71987 120.643 1.18681 120.643 -2.42748C120.652 -7.26416 122.564 -11.9008 125.963 -15.3239C129.362 -18.7469 133.97 -20.6779 138.781 -20.6948ZM138.781 -21.1738C135.093 -21.1738 131.488 -20.0744 128.422 -18.0145C125.356 -15.9546 122.966 -13.0268 121.554 -9.6014C120.143 -6.17595 119.774 -2.40668 120.493 1.22975C121.213 4.86619 122.989 8.20646 125.596 10.8282C128.204 13.4499 131.526 15.2353 135.143 15.9587C138.76 16.682 142.509 16.3108 145.916 14.8919C149.323 13.473 152.235 11.0703 154.284 7.98743C156.333 4.90461 157.427 1.2802 157.427 -2.42748C157.427 -4.88928 156.944 -7.32699 156.007 -9.6014C155.07 -11.8758 153.697 -13.9424 151.965 -15.6832C150.234 -17.4239 148.178 -18.8048 145.916 -19.7468C143.654 -20.6889 141.229 -21.1738 138.781 -21.1738Z" fill="#000116"/>
<path d="M138.781 -17.6922C141.784 -17.6922 144.719 -16.7969 147.216 -15.1195C149.713 -13.4421 151.659 -11.058 152.808 -8.2686C153.958 -5.47922 154.258 -2.40988 153.672 0.551308C153.087 3.5125 151.641 6.23252 149.517 8.36742C147.394 10.5023 144.688 11.9562 141.743 12.5452C138.798 13.1342 135.745 12.8319 132.97 11.6765C130.196 10.5211 127.825 8.56453 126.156 6.05416C124.488 3.54379 123.597 0.592394 123.597 -2.4268C123.606 -6.47283 125.208 -10.3507 128.054 -13.2117C130.899 -16.0727 134.757 -17.6837 138.781 -17.6922ZM138.781 -18.2031C135.679 -18.1968 132.648 -17.2662 130.072 -15.5288C127.495 -13.7915 125.489 -11.3253 124.306 -8.44204C123.124 -5.55875 122.817 -2.38767 123.426 0.670527C124.035 3.72873 125.532 6.5368 127.728 8.73996C129.924 10.9431 132.72 12.4425 135.763 13.0487C138.806 13.6548 141.959 13.3405 144.825 12.1455C147.69 10.9505 150.139 8.92842 151.862 6.33471C153.585 3.74101 154.504 0.692095 154.504 -2.4268C154.504 -6.61094 152.851 -10.6237 149.908 -13.5824C146.965 -16.541 142.974 -18.2031 138.813 -18.2031H138.781Z" fill="#000116"/>
<path d="M138.781 -14.978C141.25 -14.978 143.663 -14.2419 145.716 -12.8628C147.769 -11.4837 149.369 -9.52354 150.314 -7.23018C151.259 -4.93683 151.506 -2.41328 151.024 0.0213394C150.543 2.45595 149.354 4.69228 147.608 6.44754C145.862 8.2028 143.638 9.39815 141.216 9.88243C138.795 10.3667 136.285 10.1182 134.004 9.16821C131.723 8.21828 129.773 6.60961 128.401 4.54564C127.03 2.48167 126.297 0.0551147 126.297 -2.4272C126.297 -5.75587 127.613 -8.94822 129.954 -11.3019C132.295 -13.6557 135.47 -14.978 138.781 -14.978ZM138.781 -15.457C136.218 -15.457 133.712 -14.6928 131.581 -13.2611C129.449 -11.8294 127.788 -9.7944 126.807 -7.41351C125.827 -5.03262 125.57 -2.41275 126.07 0.114792C126.57 2.64233 127.804 4.96403 129.617 6.78628C131.429 8.60853 133.738 9.8495 136.252 10.3523C138.766 10.855 141.372 10.597 143.74 9.61079C146.108 8.6246 148.133 6.95452 149.557 4.81178C150.981 2.66903 151.741 0.149859 151.741 -2.4272C151.741 -5.88292 150.375 -9.19712 147.945 -11.6407C145.514 -14.0843 142.218 -15.457 138.781 -15.457Z" fill="#000116"/>
<path d="M138.781 -12.2634C140.72 -12.2824 142.621 -11.7217 144.242 -10.6525C145.863 -9.5833 147.132 -8.05381 147.887 -6.25823C148.642 -4.46265 148.85 -2.48196 148.483 -0.567645C148.116 1.34667 147.192 3.10827 145.828 4.49349C144.463 5.87872 142.72 6.82508 140.82 7.21244C138.92 7.59981 136.948 7.4107 135.154 6.66911C133.361 5.92753 131.828 4.66693 130.748 3.04736C129.669 1.42779 129.093 -0.477706 129.093 -2.42719C129.093 -5.03593 130.123 -7.53782 131.958 -9.38247C133.793 -11.2271 136.281 -12.2634 138.876 -12.2634M138.876 -12.7744C136.841 -12.7744 134.851 -12.1676 133.158 -11.0306C131.466 -9.89362 130.147 -8.27761 129.368 -6.3869C128.589 -4.49619 128.385 -2.41572 128.782 -0.408553C129.179 1.59861 130.159 3.4423 131.599 4.88939C133.038 6.33647 134.872 7.32195 136.868 7.7212C138.865 8.12045 140.934 7.91554 142.815 7.13238C144.695 6.34922 146.302 5.023 147.433 3.32141C148.564 1.61982 149.168 -0.380705 149.168 -2.42719C149.168 -5.17144 148.083 -7.8033 146.153 -9.74378C144.223 -11.6843 141.606 -12.7744 138.876 -12.7744Z" fill="#000116"/>
<path d="M125.757 18.9375H105.46V47.4243H125.757V18.9375Z" fill="#F15D21"/>
<path d="M125.027 19.6722V46.6899H106.222V19.6722H125.027ZM126.488 18.2031H104.729V48.159H126.488V18.3628V18.2031Z" fill="#000116"/>
<path d="M117.022 9.64453H96.7247V38.1313H117.022V9.64453Z" fill="#F15D21"/>
<path d="M116.387 10.379V37.5245H97.3283V10.379H116.387ZM117.848 8.90997H95.9942V38.8658H117.753V8.78223L117.848 8.90997Z" fill="#000116"/>
</g>
<path d="M135.001 1.46905V34.6823H101.235V1.46905H135.001ZM136.494 0H99.7741V36.1514H136.494V0Z" fill="#000116"/>
<mask id="mask3_145_264" style="mask-type:luminance" maskUnits="userSpaceOnUse" x="64" y="34" width="38" height="37">
<path d="M101.045 34.8418H64.7062V70.6419H101.045V34.8418Z" fill="white"/>
</mask>
<g mask="url(#mask3_145_264)">
<path d="M103.205 30.5625H59.0839V74.9214H103.205V30.5625Z" fill="#EDB324"/>
<path d="M102.474 31.2962V74.186H59.8145V31.2962H102.474ZM103.967 29.8271H58.3533V75.8467H103.967V29.8271Z" fill="#000116"/>
<path d="M81.4778 37.9077L114.259 28.1992L115.688 34.6822L81.8907 39.8558L81.4778 37.9077Z" fill="#CF3827"/>
<path d="M113.719 29.1257L114.799 34.0758L82.4625 39.0258V38.419L113.846 29.1257M114.958 27.2734L80.6202 37.5248L81.446 40.7184L116.673 35.3213L114.926 27.3054L114.958 27.2734Z" fill="#000116"/>
<path d="M81.2872 44.8061L81.4143 41.4528L117.054 40.5586L116.705 48.7661L81.2872 44.8061Z" stroke="#000116" stroke-width="0.5" stroke-miterlimit="10"/>
<path d="M81.0966 48.35L81.6684 46.4658L114.894 54.5137L112.925 60.837L81.0966 48.35Z" fill="#CF3827"/>
<path d="M82.1766 47.3287L113.941 55.0572L112.48 59.8795L81.986 47.9036L82.1766 47.3287ZM81.1919 45.5723L80.1755 48.7659L113.401 61.8276L115.847 54.0033L81.1919 45.5723Z" fill="#000116"/>
<path d="M78.079 52.3104L79.8896 49.5L111.178 66.6496L106.794 73.5796L78.079 52.3104Z" stroke="#000116" stroke-width="0.5" stroke-miterlimit="10"/>
<path d="M76.1731 55.2808L77.6025 53.9395L102.379 77.6359L97.5188 82.1388L76.1731 55.2808Z" fill="#CF3827"/>
<path d="M77.6025 54.9609L101.299 77.6353L97.6141 81.0525L77.1578 55.3441L77.6025 54.9609ZM77.6025 52.917L75.1249 55.2164L97.36 83.1922L103.363 77.6353L77.6343 52.917H77.6025Z" fill="#000116"/>
<path d="M71.5673 57.2289L74.5532 55.6641L93.1353 86.2586L85.8931 90.059L71.5673 57.2289Z" stroke="#000116" stroke-width="0.5" stroke-miterlimit="10"/>
<path d="M68.4544 58.826L70.3603 58.3789L80.0166 91.3687L73.5685 92.8058L68.4544 58.826Z" fill="#CF3827"/>
<path d="M69.852 59.2731L79.0955 90.8257L74.2038 91.8157L69.2803 59.4008H69.852M70.8685 57.6443L67.692 58.3789L73.0602 93.8277L80.9696 91.8157L70.8685 57.5166V57.6443Z" fill="#000116"/>
<path d="M63.4991 58.2188L66.8344 58.3465L67.7238 94.1785L59.5604 93.8272L63.4991 58.2188Z" stroke="#000116" stroke-width="0.5" stroke-miterlimit="10"/>
<path d="M65.7544 58.7935C61.991 58.7993 58.3439 57.4825 55.4441 55.0707C52.5442 52.6589 50.5741 49.3039 49.8744 45.5861C49.1748 41.8683 49.7897 38.0216 51.6127 34.7114C53.4357 31.4012 56.3522 28.8358 59.8577 27.4589C63.3631 26.082 67.237 25.9804 70.8091 27.1715C74.3812 28.3626 77.4268 30.7715 79.4192 33.9815C81.4115 37.1916 82.2252 41.0008 81.7194 44.7503C81.2137 48.4997 79.4203 51.9535 76.6496 54.5141C73.6747 57.255 69.7895 58.781 65.7544 58.7935Z" fill="#CF3827"/>
<path d="M65.7544 27.0814C67.8322 27.0837 69.8881 27.5086 71.7983 28.3305C73.7086 29.1524 75.4337 30.3544 76.87 31.864C78.3062 33.3736 79.4238 35.1597 80.1557 37.1149C80.8875 39.07 81.2184 41.1538 81.1284 43.2409C80.9489 47.2233 79.2523 50.9835 76.39 53.7423C73.5278 56.5011 69.7195 58.0468 65.7544 58.0591C61.6686 58.0591 57.7501 56.4273 54.8609 53.5226C51.9718 50.6178 50.3487 46.6782 50.3487 42.5703C50.3487 38.4624 51.9718 34.5227 54.8609 31.618C57.7501 28.7132 61.6686 27.0814 65.7544 27.0814ZM65.7544 25.6123C61.5386 25.6069 57.4765 27.2039 54.3828 30.0833C51.8822 32.3934 50.1334 35.4086 49.3653 38.7344C48.5971 42.0602 48.8454 45.5416 50.0775 48.7232C51.3097 51.9048 53.4684 54.6384 56.2712 56.5662C59.0739 58.4941 62.3903 59.5264 65.7862 59.5282C70.0032 59.54 74.0675 57.942 77.1579 55.0572C79.6584 52.7471 81.4072 49.7319 82.1754 46.4061C82.9435 43.0803 82.6953 39.5989 81.4631 36.4173C80.2309 33.2357 78.0722 30.5022 75.2694 28.5743C72.4667 26.6465 69.1504 25.6141 65.7544 25.6123Z" fill="#000116"/>
</g>
<path d="M99.7741 36.1517V69.4608H66.0085V36.1517H99.7741ZM101.235 34.6826H64.5156V70.834H101.235V34.6826Z" fill="#000116"/>
<path d="M0.955017 85.4287H5.49731L11.8502 97.4047L18.2031 85.4287H22.5866V106.698H18.2031V93.0933L13.2161 102.387H10.4843L5.49731 93.0933V106.634H0.955017V85.4287Z" fill="#000116"/>
<path d="M27.4465 85.4287H42.3758V89.1971H32.1477V93.9237H41.4864V97.5643H32.1477V102.93H42.3758V106.698H27.4465V85.4287Z" fill="#000116"/>
<path d="M57.4957 97.9156C56.825 98.3076 56.1107 98.6184 55.3674 98.8418C54.3365 99.145 53.2648 99.285 52.191 99.2569C51.2641 99.3386 50.3302 99.2308 49.4459 98.9399C48.5615 98.649 47.7448 98.1811 47.0452 97.5643C45.8042 96.068 45.1994 94.1405 45.3616 92.1991V85.4287H49.904V91.8159C49.8075 92.8643 50.1019 93.9114 50.7298 94.754C51.0872 95.0848 51.5086 95.3379 51.9677 95.4972C52.4269 95.6566 52.9138 95.7189 53.398 95.6801C54.2191 95.6987 55.0367 95.5688 55.8121 95.2969C56.3957 95.0921 56.9508 94.8131 57.4639 94.4666V85.4287H62.0062V106.698H57.4957V97.9156Z" fill="#000116"/>
<path d="M71.9167 89.1333H65.0556V85.4287H83.1931V89.1971H76.3955V106.698H71.9167V89.1333Z" fill="#000116"/>
<path d="M95.8353 102.291H87.9895L86.4013 106.634H81.986L89.8636 85.4287H94.3742L102.252 106.698H97.3282L95.8353 102.291ZM89.4824 98.5224H94.5647L92.0236 91.1133L89.4824 98.5224Z" fill="#000116"/>
<path d="M107.842 89.1333H101.045V85.4287H119.182V89.1971H112.385V106.698H107.842V89.1333Z" fill="#000116"/>
<path d="M122.2 85.4287H137.002V89.1971H126.774V93.9237H136.113V97.5643H126.774V102.93H137.002V106.698H122.2V85.4287Z" fill="#000116"/>
<path d="M140.782 106.985H140.178C139.978 107.005 139.776 107.005 139.575 106.985V102.834H140.02C140.489 102.848 140.952 102.726 141.354 102.482C141.823 102.095 142.138 101.551 142.243 100.95C142.543 99.8231 142.714 98.6659 142.751 97.5005C142.751 95.9675 142.751 93.9556 142.751 91.4007V85.4287H158.157V106.698H153.615V89.1333H147.198V92.0394C147.239 94.6433 147.101 97.2469 146.785 99.8318C146.611 101.399 146.193 102.929 145.547 104.367C145.122 105.278 144.407 106.02 143.514 106.474C142.649 106.836 141.718 107.01 140.782 106.985Z" fill="#000116"/>
<path d="M163.144 85.4287H177.978V89.1971H167.718V93.9237H177.057V97.5643H167.718V102.93H177.978V106.698H163.144V85.4287Z" fill="#000116"/>
<path d="M181.917 85.4282H186.427V99.48L195.798 85.4282H200.181V106.697H195.639V92.486L186.269 106.634H181.917V85.4282ZM190.97 84.1827C189.406 84.3259 187.847 83.8569 186.618 82.8733C186.134 82.3665 185.76 81.7642 185.519 81.1046C185.279 80.4449 185.177 79.7423 185.22 79.041H189.032C188.965 79.7462 189.132 80.454 189.509 81.053C189.703 81.2386 189.932 81.3825 190.183 81.4758C190.435 81.5692 190.702 81.61 190.97 81.5959C191.238 81.614 191.506 81.5749 191.758 81.4814C192.01 81.3878 192.239 81.2418 192.431 81.053C192.807 80.454 192.975 79.7462 192.907 79.041H196.719C196.763 79.7423 196.661 80.4449 196.42 81.1046C196.18 81.7642 195.805 82.3665 195.321 82.8733C194.083 83.8341 192.526 84.28 190.97 84.1188V84.1827Z" fill="#000116"/>
</svg>
