<svg width="272" height="47" viewBox="0 0 272 47" fill="none" xmlns="http://www.w3.org/2000/svg">
<mask id="mask0_145_487" style="mask-type:luminance" maskUnits="userSpaceOnUse" x="23" y="23" width="24" height="23">
<path d="M46.04 23.4985H23.1108V45.9H46.04V23.4985Z" fill="white"/>
</mask>
<g mask="url(#mask0_145_487)">
<path d="M47.8271 22.1982H22.293V49.4065H47.8271V22.1982Z" fill="#A2C579"/>
<path d="M24.9578 21.5029H24.6557V48.6205H24.9578V21.5029Z" fill="#000116"/>
<path d="M26.7448 21.5635H26.4427V48.681H26.7448V21.5635Z" fill="#000116"/>
<path d="M28.5621 21.6543H28.2601V48.7719H28.5621V21.6543Z" fill="#000116"/>
<path d="M30.3493 21.7451H30.0472V48.8627H30.3493V21.7451Z" fill="#000116"/>
<path d="M32.1365 21.8354H31.8344V48.953H32.1365V21.8354Z" fill="#000116"/>
<path d="M33.9237 21.9253H33.6216V49.0428H33.9237V21.9253Z" fill="#000116"/>
<path d="M35.7407 22.0176H35.4387V49.1351H35.7407V22.0176Z" fill="#000116"/>
<path d="M37.5279 22.1089H37.2258V49.2264H37.5279V22.1089Z" fill="#000116"/>
<path d="M39.3151 22.1982H39.013V49.3158H39.3151V22.1982Z" fill="#000116"/>
<path d="M41.1021 22.29H40.8V49.4076H41.1021V22.29Z" fill="#000116"/>
<path d="M42.9194 22.3799H42.6174V49.4974H42.9194V22.3799Z" fill="#000116"/>
<path d="M44.7065 22.4702H44.4044V49.5878H44.7065V22.4702Z" fill="#000116"/>
<path d="M25.6855 26.4312H25.6552C23.2128 26.4312 21.2329 28.4073 21.2329 30.8449V30.8752C21.2329 33.3128 23.2128 35.2889 25.6552 35.2889H25.6855C28.1278 35.2889 30.1077 33.3128 30.1077 30.8752V30.8449C30.1077 28.4073 28.1278 26.4312 25.6855 26.4312Z" fill="#EDB324"/>
<path d="M25.6553 28.4566C26.2442 29.4369 27.066 30.2572 28.0482 30.8449C27.066 31.4326 26.2442 32.2529 25.6553 33.2331C25.0665 32.2529 24.2446 31.4326 23.2625 30.8449C24.2446 30.2572 25.0665 29.4369 25.6553 28.4566ZM25.6553 24.98C25.6553 26.5354 25.0362 28.0272 23.9342 29.1271C22.8323 30.227 21.3376 30.8449 19.7792 30.8449C21.3324 30.8449 22.8225 31.4586 23.9236 32.552C25.0247 33.6453 25.6473 35.1293 25.6553 36.6795C25.6633 35.1293 26.286 33.6453 27.3871 32.552C28.4882 31.4586 29.9783 30.8449 31.5315 30.8449C29.9731 30.8449 28.4784 30.227 27.3764 29.1271C26.2744 28.0272 25.6553 26.5354 25.6553 24.98Z" fill="#000116"/>
<path d="M48.0997 38.5535C48.0997 32.6597 43.3127 27.8818 37.4075 27.8818C31.5024 27.8818 26.7153 32.6597 26.7153 38.5535C26.7153 44.4473 31.5024 49.2252 37.4075 49.2252C43.3127 49.2252 48.0997 44.4473 48.0997 38.5535Z" fill="#EDB324"/>
<path d="M37.4077 31.2683C38.0529 32.934 39.0298 34.4518 40.2792 35.73C41.5287 37.0082 43.0248 38.0204 44.6772 38.7053C43.0402 39.3667 41.553 40.3498 40.3042 41.5962C39.0554 42.8426 38.0704 44.3269 37.4077 45.9608C36.7451 44.3269 35.7601 42.8426 34.5113 41.5962C33.2624 40.3498 31.7753 39.3667 30.1383 38.7053C31.7764 38.0375 33.2637 37.0486 34.5123 35.7972C35.7609 34.5458 36.7455 33.0572 37.4077 31.4195M37.4077 26.5522C37.4077 29.7594 36.1313 32.8352 33.8591 35.103C31.5869 37.3708 28.5052 38.6448 25.2919 38.6448C28.5052 38.6448 31.5869 39.9188 33.8591 42.1866C36.1313 44.4544 37.4077 47.5302 37.4077 50.7374C37.4077 47.5302 38.6842 44.4544 40.9564 42.1866C43.2285 39.9188 46.3102 38.6448 49.5236 38.6448C46.3102 38.6448 43.2285 37.3708 40.9564 35.103C38.6842 32.8352 37.4077 29.7594 37.4077 26.5522Z" fill="#000116"/>
</g>
<path d="M45.4646 24.0729V45.2348H23.6864V24.0729H45.4646ZM46.4036 23.1055H22.7474V46.2627H46.4036V23.1055Z" fill="#000116"/>
<mask id="mask1_145_487" style="mask-type:luminance" maskUnits="userSpaceOnUse" x="0" y="0" width="24" height="25">
<path d="M23.6864 0.915527H0V24.0728H23.6864V0.915527Z" fill="white"/>
</mask>
<g mask="url(#mask1_145_487)">
<path d="M44.4044 -2.19873H-20.6878V27.1559H44.4044V-2.19873Z" fill="#057253"/>
<path d="M11.4191 -0.263479V26.6122L8.69303 25.6146C8.26898 23.3472 7.39057 21.3217 5.3006 14.8824C4.02112 11.5701 3.32432 8.0621 3.24091 4.51308C3.24091 3.15266 3.69525 -0.535567 3.8467 -1.5332L11.4191 -0.263479Z" fill="#0C9E79"/>
<path d="M4.66452 -0.596774L10.4498 0.400867V25.0999L9.51085 24.7674C9.10223 23.0638 8.58628 21.3876 7.96608 19.7489C7.51174 18.3885 6.93624 16.7258 6.20929 14.4282C4.95912 11.2136 4.27263 7.80821 4.17989 4.36117C4.17989 3.36354 4.45249 0.884564 4.66452 -0.596774ZM3.8467 -1.71533C3.8467 -0.687465 3.24091 3.00076 3.24091 4.33095C3.32432 7.87996 4.02112 11.388 5.3006 14.7003C7.39057 21.1396 8.32956 23.1651 8.69303 25.4325L11.4191 26.4301V-0.264227L3.8467 -1.59442V-1.71533Z" fill="#000116"/>
<path d="M26.6547 -0.38425C26.2307 0.159915 25.11 2.09473 24.6556 2.82028C22.4784 6.7993 20.6443 10.956 19.1732 15.2454C18.52 16.9583 18.0825 18.7455 17.8708 20.5661C17.7286 22.4075 17.7286 24.2571 17.8708 26.0984L13.3273 26.6124C13.3762 22.4345 14.05 18.2874 15.3264 14.3082C16.9621 8.7154 18.3554 7.59684 18.3554 3.63653C18.3554 2.42727 18.0222 -0.0517064 17.9313 -0.716797L26.6547 -0.38425Z" fill="#0C9E79"/>
<path d="M18.9914 0.250772L25.0493 0.492629L24.6253 1.18795L23.9286 2.42744C21.7117 6.45161 19.847 10.6593 18.3553 15.0037C17.6112 16.7867 17.0923 18.6553 16.8106 20.5663C16.6898 22.1562 16.6898 23.7529 16.8106 25.3428L14.1754 25.6451C14.4006 21.8687 15.082 18.1333 16.2048 14.52C16.8106 12.4643 17.3861 11.0434 17.8707 9.80389C18.7987 7.84835 19.2749 5.70977 19.264 3.54599C19.264 2.69951 19.1126 1.21818 18.9914 0.220546M17.8707 -0.595703C17.8707 0.0693873 18.2645 2.42743 18.2948 3.75761C18.2948 7.71792 16.9014 8.83649 15.2658 14.4293C14.0115 18.3713 13.3481 22.4768 13.297 26.6125L17.8404 26.0986C17.7083 24.2565 17.7185 22.4069 17.8707 20.5663C18.1239 18.7507 18.6021 16.9736 19.2943 15.2758C20.7654 10.9864 22.5995 6.8297 24.7767 2.85067C25.2311 2.12512 26.3518 0.190318 26.7758 -0.353847L17.8707 -0.595703Z" fill="#000116"/>
<path d="M18.7188 26.0676C18.5596 24.2269 18.5596 22.3759 18.7188 20.5352C18.9585 18.6975 19.4371 16.8987 20.1424 15.1843C21.6153 10.8859 23.4493 6.71927 25.6248 2.72893L26.3214 1.61038C26.8061 0.794128 27.3513 -0.112809 27.6239 -0.475586L27.8965 -0.294205C27.6239 0.0685716 27.0787 0.975514 26.594 1.76153C26.1094 2.54755 26.0791 2.63825 25.8974 2.8801C23.7252 6.84702 21.901 10.9941 20.4453 15.275C19.7055 16.9629 19.1962 18.7423 18.9308 20.5655C18.7886 22.3867 18.7886 24.2161 18.9308 26.0373L18.7188 26.0676Z" fill="#000116"/>
<path d="M20.0213 26.1286C19.8791 24.2872 19.8791 22.4376 20.0213 20.5963C20.2687 18.7567 20.7575 16.9576 21.4752 15.2453C22.934 10.9414 24.7685 6.77363 26.9576 2.78997L27.6543 1.64118C28.1389 0.855168 28.6841 -0.0517742 28.9567 -0.414551L29.199 -0.23317C28.9567 0.0993754 28.4115 1.00632 27.9269 1.79234C27.4422 2.57835 27.3817 2.69927 27.2302 2.94112C25.0563 6.89672 23.232 11.0339 21.7781 15.3058C21.0369 16.9849 20.5176 18.7532 20.2333 20.566C20.1047 22.3877 20.1047 24.2162 20.2333 26.0379L20.0213 26.1286Z" fill="#000116"/>
<path d="M21.3539 26.1887C21.2117 24.3473 21.2117 22.4977 21.3539 20.6563C21.5936 18.8185 22.0722 17.0198 22.7775 15.3054C24.2441 11.0045 26.0783 6.83739 28.2599 2.85003L28.9565 1.70123C29.4412 0.884984 29.9864 0.00828442 30.259 -0.354492L30.5316 -0.173111C30.259 0.159434 29.7138 1.06638 29.2291 1.8524C29.018 2.24764 28.7854 2.63113 28.5325 3.00118C26.3603 6.9681 24.5361 11.1152 23.0804 15.3961C22.3509 17.0456 21.8417 18.7837 21.5659 20.5656C21.4237 22.3868 21.4237 24.2163 21.5659 26.0375L21.3539 26.1887Z" fill="#000116"/>
<path d="M22.6566 26.2493C22.5126 24.408 22.5126 22.5583 22.6566 20.717C22.8303 18.8832 23.2585 17.0823 23.9287 15.366C25.3691 11.089 27.1939 6.95057 29.3808 3.00139L30.0472 1.88284C30.5318 1.06659 31.1073 0.159652 31.3497 -0.203125L31.6223 -0.0217441C31.3497 0.341033 30.8044 1.24798 30.3198 2.03399L29.6534 3.15256C27.484 7.09987 25.6599 11.2266 24.2013 15.487C23.4937 17.1691 23.0149 18.9382 22.7777 20.7472C22.6343 22.5684 22.6343 24.3979 22.7777 26.2191L22.6566 26.2493Z" fill="#000116"/>
<path d="M7.3905 25.6145C6.96756 23.7959 6.42108 22.0081 5.75487 20.2636C5.27023 18.8729 4.69473 17.2404 3.96778 14.8824C2.7009 11.5442 1.99475 8.02023 1.87781 4.45253C1.87781 3.12235 2.33215 -0.565883 2.51389 -1.59375H2.81678C2.81678 -0.565883 2.21099 3.12235 2.21099 4.45253C2.29787 7.99135 2.99461 11.4888 4.27067 14.7917C4.99762 17.059 5.57312 18.7822 6.05776 20.1426C6.71553 21.9079 7.25189 23.7159 7.66311 25.554L7.3905 25.6145Z" fill="#000116"/>
<path d="M5.99724 25.5843C5.58094 23.7573 5.04466 21.9597 4.39189 20.2031C3.90726 18.8427 3.33175 17.1799 2.60481 14.8824C1.34058 11.5434 0.634524 8.01991 0.514832 4.45253C0.514832 3.09211 0.969172 -0.596114 1.15091 -1.59375H1.45381C1.45381 -0.596114 0.848018 3.09211 0.848018 4.45253C0.934898 7.99135 1.63164 11.4888 2.90771 14.7917C3.63466 17.0288 4.21016 18.752 4.69479 20.1124C5.3485 21.879 5.88478 23.6867 6.30013 25.5238L5.99724 25.5843Z" fill="#000116"/>
<path d="M4.60404 25.5843C4.18774 23.7573 3.65147 21.9597 2.9987 20.2031C2.51407 18.8124 1.93857 17.1799 1.21162 14.8521C-0.0541396 11.5241 -0.760304 8.01028 -0.878357 4.45253C-0.878357 3.09211 -0.424017 -0.596114 -0.242279 -1.59375H0.0606114C0.0606114 -0.565883 -0.545182 3.09211 -0.545182 4.45253C-0.457245 7.98143 0.239521 11.4688 1.51451 14.7614C2.24146 16.9986 2.81696 18.7217 3.27131 20.0822C3.94733 21.8543 4.49398 23.6729 4.90694 25.5238L4.60404 25.5843Z" fill="#000116"/>
<path d="M3.21056 25.5842C2.79847 23.7562 2.26212 21.9583 1.60522 20.203C1.12059 18.8426 0.545084 17.1799 -0.181865 14.8521C-1.44609 11.5132 -2.15216 7.98964 -2.27185 4.42225C-2.27185 3.06184 -1.8175 -0.626388 -1.63576 -1.62402H-1.33287C-1.33287 -0.626388 -1.93866 3.06184 -1.93866 4.42225C-1.85178 7.96108 -1.15504 11.4586 0.121026 14.7614C0.847975 17.0287 1.42348 18.7217 1.90811 20.1123C2.56588 21.8776 3.10223 23.6856 3.51345 25.5238L3.21056 25.5842Z" fill="#000116"/>
<path d="M1.81719 25.554C1.40414 23.7361 0.867777 21.9483 0.211835 20.203C-0.272797 18.8124 -0.848288 17.1799 -1.57524 14.8521C-2.83946 11.5132 -3.54553 7.98964 -3.66522 4.42225C-3.66522 3.06184 -3.21088 -0.626388 -3.02914 -1.62402H-2.72624C-2.87769 -0.596156 -3.33204 3.09207 -3.33204 4.42225C-3.2441 7.95115 -2.54733 11.4385 -1.27235 14.7312C-0.545397 16.9985 0.0301049 18.7217 0.514738 20.0821C1.17251 21.8474 1.70886 23.6554 2.12008 25.4935L1.81719 25.554Z" fill="#000116"/>
<path d="M12.0551 26.6124C12.1063 22.4249 12.7801 18.2681 14.0542 14.278C14.6902 12.1618 15.2657 10.6502 15.7504 9.44099C16.6244 7.63018 17.0799 5.64656 17.0831 3.63657C17.0831 2.48777 16.7802 0.129724 16.6591 -0.686523H16.9922C16.9922 0.159955 17.386 2.51799 17.386 3.69702C17.4187 5.78845 16.9624 7.85868 16.0533 9.7433C15.398 11.3126 14.8317 12.9174 14.3571 14.5501C13.0904 18.458 12.4265 22.5355 12.3882 26.6426L12.0551 26.6124Z" fill="#000116"/>
<path d="M10.4195 26.6124C10.444 22.425 11.1079 18.2657 12.3883 14.278C13.0244 12.1618 13.5999 10.6502 14.0845 9.44099C14.9586 7.63018 15.4141 5.64656 15.4173 3.63657C15.4173 2.27615 15.0235 -0.656292 15.0235 -0.686523H15.3264C15.3264 -0.686523 15.7202 2.33661 15.7202 3.69702C15.7529 5.78845 15.2966 7.85868 14.3874 9.7433C13.9028 10.9526 13.3273 12.4339 12.6912 14.5501C11.4388 18.4614 10.7753 22.5367 10.7224 26.6426L10.4195 26.6124Z" fill="#000116"/>
<path d="M11.2676 13.613H10.9647C11.5099 11.8898 11.9946 10.5899 12.4489 9.50153C13.3125 7.68829 13.7576 5.70478 13.7514 3.6971C13.7514 2.33669 13.3576 -0.595745 13.3576 -0.625977H13.6605C13.6605 -0.625977 14.0543 2.39715 14.0543 3.75757C14.087 5.84899 13.6307 7.91923 12.7215 9.80384C12.2975 10.6503 11.8128 11.8898 11.2676 13.613Z" fill="#000116"/>
<path d="M11.0254 9.65274H10.7225C11.5861 7.83949 12.0312 5.85599 12.0249 3.84831C12.0855 2.24605 11.8129 -0.595703 11.8129 -0.595703H12.1158C12.1158 -0.595703 12.5096 2.42744 12.5399 3.78785C12.548 5.88006 12.0821 7.94704 11.1768 9.83413L11.0254 9.65274Z" fill="#000116"/>
</g>
<path d="M22.7475 1.8527V23.0147H0.93898V1.8527H22.7475ZM23.6864 0.915527H0V24.0728H23.6864V0.915527Z" fill="#000116"/>
<mask id="mask2_145_487" style="mask-type:luminance" maskUnits="userSpaceOnUse" x="23" y="1" width="23" height="23">
<path d="M45.9795 1.30859H23.1412V23.6496H45.9795V1.30859Z" fill="white"/>
</mask>
<g mask="url(#mask2_145_487)">
<path d="M67.1214 -2.19824H2.02917V27.1564H67.1214V-2.19824Z" fill="#CF3827"/>
<path d="M47.9179 -24.2064C52.5894 -24.2064 57.156 -22.8242 61.0406 -20.2344C64.9252 -17.6447 67.9534 -13.9637 69.7425 -9.65672C71.5315 -5.34971 72.0012 -0.610016 71.092 3.96332C70.1829 8.53666 67.9357 12.7384 64.6346 16.0373C61.3335 19.3363 57.1266 21.5845 52.5457 22.4978C47.9647 23.4111 43.2153 22.9484 38.8977 21.1683C34.5801 19.3882 30.8882 16.3705 28.2885 12.4967C25.6888 8.62289 24.2981 4.06682 24.2921 -0.595663C24.3081 -6.8419 26.8034 -12.8273 31.2315 -17.2412C35.6596 -21.6551 41.6597 -24.1379 47.9179 -24.1459M47.9179 -24.4482C43.1827 -24.4542 38.5522 -23.0578 34.6125 -20.4359C30.6728 -17.8139 27.6011 -14.0842 25.7862 -9.71896C23.9713 -5.35371 23.4949 -0.549181 24.4172 4.08644C25.3396 8.72206 27.6192 12.9804 30.9675 16.3222C34.3158 19.6641 38.5823 21.9394 43.2268 22.8599C47.8714 23.7805 52.6851 23.305 57.0588 21.4936C61.4324 19.6822 65.1693 16.6164 67.7963 12.6843C70.4233 8.75214 71.8224 4.13048 71.8164 -0.595663C71.8084 -6.9193 69.2879 -12.9816 64.8078 -17.4531C60.3277 -21.9246 54.2537 -24.4402 47.9179 -24.4482Z" fill="#000116"/>
<path d="M47.918 -22.3021C52.2048 -22.3021 56.3954 -21.0341 59.9605 -18.6583C63.5257 -16.2825 66.3054 -12.9055 67.9486 -8.95376C69.5919 -5.00205 70.0249 -0.652925 69.1929 3.54426C68.361 7.74146 66.3015 11.5984 63.2746 14.628C60.2476 17.6576 56.3889 19.7239 52.186 20.566C47.9831 21.408 43.6244 20.9879 39.6605 19.3589C35.6967 17.7298 32.3054 14.9649 29.9151 11.4132C27.5248 7.86158 26.2427 3.68257 26.2307 -0.595945C26.2387 -6.33428 28.5262 -11.8353 32.5916 -15.8929C36.6571 -19.9505 42.1686 -22.2336 47.918 -22.2416M47.918 -22.5439C43.5602 -22.5499 39.2986 -21.2652 35.6727 -18.8525C32.0468 -16.4398 29.2197 -13.0076 27.5493 -8.99038C25.8788 -4.97316 25.4402 -0.551575 26.2889 3.7146C27.1376 7.98077 29.2355 11.8997 32.3169 14.9752C35.3984 18.0507 39.3248 20.1446 43.5992 20.9916C47.8736 21.8387 52.3037 21.4009 56.3286 19.7337C60.3536 18.0665 63.7924 15.2448 66.2097 11.6259C68.6271 8.00694 69.9142 3.75351 69.9082 -0.595945C69.9002 -6.41446 67.5808 -11.9924 63.4586 -16.1067C59.3364 -20.221 53.7477 -22.5359 47.918 -22.5439Z" fill="#000116"/>
<path d="M47.9181 -20.4584C51.8467 -20.4584 55.6871 -19.296 58.9541 -17.1182C62.221 -14.9404 64.7678 -11.8449 66.2726 -8.22286C67.7774 -4.60084 68.1726 -0.614866 67.4084 3.2313C66.6442 7.07746 64.7547 10.6112 61.9789 13.3859C59.2031 16.1606 55.6654 18.0518 51.813 18.8204C47.9606 19.5891 43.9664 19.2006 40.3352 17.7043C36.7039 16.2079 33.5985 13.6707 31.4115 10.4133C29.2246 7.156 28.0541 3.3247 28.0481 -0.596361C28.0562 -5.85084 30.1531 -10.8874 33.8786 -14.6C37.6041 -18.3127 42.6535 -20.3979 47.9181 -20.3979M47.9181 -20.7305C43.9283 -20.7305 40.0281 -19.5496 36.7107 -17.3373C33.3932 -15.1249 30.8077 -11.9804 29.2808 -8.30135C27.754 -4.62232 27.3545 -0.574028 28.1329 3.33161C28.9112 7.23724 30.8325 10.8248 33.6537 13.6406C36.475 16.4564 40.0694 18.374 43.9826 19.1509C47.8957 19.9277 51.9518 19.529 55.6379 18.0051C59.324 16.4812 62.4746 13.9006 64.6912 10.5895C66.9078 7.27851 68.0909 3.38579 68.0909 -0.596361C68.0909 -5.93626 65.9656 -11.0574 62.1824 -14.8333C58.3993 -18.6092 53.2682 -20.7305 47.9181 -20.7305Z" fill="#000116"/>
<path d="M47.9181 -20.4584C51.8467 -20.4584 55.6871 -19.296 58.9541 -17.1182C62.221 -14.9404 64.7678 -11.8449 66.2726 -8.22286C67.7774 -4.60084 68.1726 -0.614866 67.4084 3.2313C66.6442 7.07746 64.7547 10.6112 61.9789 13.3859C59.2031 16.1606 55.6654 18.0518 51.813 18.8204C47.9606 19.5891 43.9664 19.2006 40.3352 17.7043C36.7039 16.2079 33.5985 13.6707 31.4115 10.4133C29.2246 7.156 28.0541 3.3247 28.0481 -0.596361C28.0562 -5.85084 30.1531 -10.8874 33.8786 -14.6C37.6041 -18.3127 42.6535 -20.3979 47.9181 -20.3979M47.9181 -20.7305C43.9283 -20.7305 40.0281 -19.5496 36.7107 -17.3373C33.3932 -15.1249 30.8077 -11.9804 29.2808 -8.30135C27.754 -4.62232 27.3545 -0.574028 28.1329 3.33161C28.9112 7.23724 30.8325 10.8248 33.6537 13.6406C36.475 16.4564 40.0694 18.374 43.9826 19.1509C47.8957 19.9277 51.9518 19.529 55.6379 18.0051C59.324 16.4812 62.4746 13.9006 64.6912 10.5895C66.9078 7.27851 68.0909 3.38579 68.0909 -0.596361C68.0909 -5.93626 65.9656 -11.0574 62.1824 -14.8333C58.3993 -18.6092 53.2682 -20.7305 47.9181 -20.7305Z" fill="#000116"/>
<path d="M47.918 -18.5536C51.4705 -18.5595 54.9449 -17.514 57.902 -15.5491C60.8591 -13.5842 63.1661 -10.7882 64.5311 -7.51472C65.8961 -4.24125 66.2579 -0.637293 65.5707 2.8414C64.8835 6.3201 63.1782 9.51729 60.6705 12.0287C58.1627 14.5401 54.9652 16.2529 51.4821 16.9504C47.9991 17.648 44.387 17.2991 41.1026 15.9478C37.8182 14.5964 35.0091 12.3034 33.0305 9.35859C31.0519 6.41381 29.9926 2.94954 29.9866 -0.596115C29.9946 -5.34547 31.8905 -9.89756 35.2581 -13.253C38.6257 -16.6085 43.1898 -18.4931 47.9483 -18.4931M47.9483 -18.7954C44.3538 -18.7954 40.8401 -17.7316 37.8515 -15.7385C34.8628 -13.7453 32.5335 -10.9124 31.1579 -7.59801C29.7824 -4.28357 29.4225 -0.636452 30.1237 2.88214C30.825 6.40073 32.5559 9.63275 35.0975 12.1695C37.6391 14.7063 40.8774 16.4338 44.4028 17.1337C47.9281 17.8336 51.5822 17.4744 54.903 16.1015C58.2239 14.7286 61.0622 12.4037 63.0592 9.42082C65.0561 6.43791 66.122 2.93094 66.122 -0.656578C66.122 -5.4673 64.2073 -10.081 60.799 -13.4827C57.3908 -16.8844 52.7682 -18.7954 47.9483 -18.7954Z" fill="#000116"/>
<path d="M47.918 -16.5589C51.0738 -16.5589 54.1588 -15.6253 56.7831 -13.876C59.4075 -12.1267 61.4535 -9.64028 62.6625 -6.73086C63.8716 -3.82144 64.1895 -0.619606 63.576 2.47006C62.9625 5.55972 61.4453 8.39857 59.2159 10.6279C56.9865 12.8572 54.1451 14.377 51.0506 14.9951C47.9562 15.6133 44.7476 15.3021 41.8303 14.1008C38.913 12.8996 36.4179 10.8623 34.6603 8.24628C32.9026 5.63027 31.9614 2.55297 31.9554 -0.596775C31.9634 -4.81695 33.6487 -8.86154 36.6414 -11.8428C39.6341 -14.8241 43.6897 -16.4985 47.918 -16.4985M47.918 -16.831C44.6924 -16.837 41.5376 -15.8874 38.8531 -14.1026C36.1687 -12.3177 34.0753 -9.77784 32.8382 -6.80467C31.601 -3.83149 31.2758 -0.558756 31.9036 2.59906C32.5314 5.75688 34.084 8.65771 36.3648 10.9342C38.6457 13.2106 41.5521 14.7603 44.716 15.3869C47.8799 16.0135 51.1589 15.6888 54.1378 14.4541C57.1167 13.2193 59.6614 11.13 61.4497 8.45065C63.238 5.77134 64.1894 2.6226 64.1834 -0.596775C64.1754 -4.89991 62.4592 -9.02451 59.4105 -12.0673C56.3619 -15.1101 52.2294 -16.823 47.918 -16.831Z" fill="#000116"/>
<path d="M47.9179 -14.5027C50.6591 -14.5027 53.3388 -13.6922 55.6188 -12.1734C57.8988 -10.6547 59.6769 -8.49577 60.7287 -5.96927C61.7804 -3.44277 62.0586 -0.661904 61.5283 2.02229C60.9979 4.70648 59.6826 7.17368 57.7486 9.11246C55.8145 11.0512 53.3483 12.3747 50.6613 12.9157C47.9743 13.4568 45.1869 13.1912 42.651 12.1525C40.115 11.1138 37.9443 9.34855 36.4127 7.07956C34.8811 4.81057 34.0573 2.13956 34.0453 -0.596307C34.0533 -4.26603 35.5175 -7.78317 38.1174 -10.3781C40.7172 -12.973 44.2411 -14.4343 47.9179 -14.4423M47.9179 -14.7446C45.1057 -14.7506 42.355 -13.9233 40.0142 -12.3677C37.6735 -10.812 35.848 -8.59796 34.769 -6.00594C33.6901 -3.41392 33.4062 -0.560602 33.9534 2.19258C34.5005 4.94575 35.8541 7.4749 37.8427 9.45962C39.8312 11.4443 42.3652 12.7953 45.1237 13.3414C47.8822 13.8876 50.741 13.6042 53.338 12.5274C55.935 11.4505 58.1533 9.62849 59.712 7.29222C61.2706 4.95595 62.0994 2.2105 62.0934 -0.596307C62.0854 -4.34621 60.5894 -7.94025 57.9327 -10.5918C55.276 -13.2434 51.6751 -14.7366 47.9179 -14.7446Z" fill="#000116"/>
<path d="M47.9179 -12.3261C50.235 -12.3261 52.5002 -11.6406 54.4272 -10.3564C56.3542 -9.07217 57.8567 -7.24674 58.7448 -5.11069C59.6329 -2.97464 59.8668 -0.6238 59.4169 1.64486C58.9671 3.91352 57.8537 5.99822 56.2173 7.63563C54.581 9.27304 52.4952 10.3897 50.2233 10.8445C47.9515 11.2994 45.5955 11.072 43.4531 10.1911C41.3106 9.31023 39.4778 7.81537 38.1861 5.89538C36.8945 3.97538 36.2019 1.71637 36.1959 -0.596281C36.1959 -2.13126 36.4993 -3.65117 37.0888 -5.06893C37.6782 -6.48669 38.5421 -7.77445 39.631 -8.85844C40.7199 -9.94244 42.0124 -10.8014 43.4344 -11.386C44.8564 -11.9707 46.38 -12.2696 47.9179 -12.2656M47.9179 -12.5981C45.5217 -12.5981 43.1792 -11.8889 41.1867 -10.5602C39.1943 -9.23143 37.6414 -7.34283 36.7244 -5.1332C35.8074 -2.92358 35.5674 -0.492176 36.0349 1.85355C36.5024 4.19928 37.6563 6.35397 39.3508 8.04515C41.0452 9.73632 43.204 10.888 45.5543 11.3546C47.9045 11.8212 50.3406 11.5817 52.5545 10.6665C54.7683 9.75122 56.6606 8.20129 57.9919 6.21268C59.3232 4.22407 60.0337 1.88609 60.0337 -0.50559C60.0337 -3.71274 58.7573 -6.78852 56.4851 -9.05632C54.213 -11.3241 51.1312 -12.5981 47.9179 -12.5981Z" fill="#000116"/>
<path d="M47.918 -10.4207C49.8577 -10.4207 51.7539 -9.84702 53.3671 -8.77207C54.9803 -7.69711 56.2381 -6.16913 56.9818 -4.3811C57.7255 -2.59306 57.9216 -0.625172 57.5454 1.27404C57.1691 3.17324 56.2375 4.91858 54.868 6.28963C53.4986 7.66068 51.7527 8.59593 49.851 8.97728C47.9493 9.35863 45.9771 9.16896 44.1833 8.43224C42.3896 7.69552 40.8548 6.44478 39.7728 4.83799C38.6908 3.23119 38.1101 1.34042 38.1042 -0.595543C38.1042 -1.88041 38.3582 -3.15265 38.8518 -4.33934C39.3453 -5.52603 40.0687 -6.60383 40.9804 -7.51097C41.8921 -8.4181 42.9742 -9.13674 44.1647 -9.62568C45.3552 -10.1146 46.6306 -10.3643 47.918 -10.3603M47.918 -10.6928C45.9085 -10.6988 43.9425 -10.1092 42.2692 -8.99863C40.5959 -7.88811 39.2907 -6.30672 38.5189 -4.45493C37.7472 -2.60314 37.5437 -0.564332 37.9342 1.40303C38.3248 3.37038 39.2918 5.1777 40.7127 6.59587C42.1336 8.01405 43.9444 8.97922 45.9156 9.36903C47.8867 9.75883 49.9294 9.55574 51.7848 8.78547C53.6401 8.01519 55.2246 6.71243 56.3372 5.04235C57.4499 3.37226 58.0407 1.41005 58.0347 -0.595543C58.0347 -3.27351 56.9688 -5.84179 55.0716 -7.7354C53.1743 -9.62901 50.6011 -10.6928 47.918 -10.6928Z" fill="#000116"/>
<path d="M47.9181 -8.66878C49.5104 -8.66877 51.0669 -8.1979 52.3912 -7.31561C53.7155 -6.43332 54.7482 -5.17919 55.3589 -3.71155C55.9696 -2.24391 56.1309 -0.628578 55.8225 0.930499C55.514 2.48958 54.7497 3.92249 53.6259 5.04831C52.5022 6.17414 51.0694 6.9424 49.5085 7.25609C47.9476 7.56978 46.3285 7.41484 44.8558 6.81083C43.383 6.20681 42.1226 5.18081 41.2337 3.86237C40.3447 2.54393 39.8671 0.992159 39.8611 -0.597008C39.8611 -1.65162 40.0697 -2.69585 40.475 -3.6698C40.8803 -4.64376 41.4742 -5.52826 42.2228 -6.27258C42.9713 -7.01689 43.8598 -7.60637 44.8371 -8.00719C45.8145 -8.40802 46.8615 -8.61231 47.9181 -8.60833M47.9181 -8.94086C46.2561 -8.94684 44.6298 -8.46004 43.2454 -7.54218C41.861 -6.62433 40.7809 -5.31679 40.1421 -3.78539C39.5034 -2.254 39.3347 -0.56775 39.6574 1.05948C39.9802 2.6867 40.7799 4.18159 41.9551 5.35454C43.1303 6.5275 44.6281 7.32567 46.2584 7.64782C47.8888 7.96997 49.5783 7.8016 51.1126 7.16404C52.647 6.52648 53.957 5.44847 54.8767 4.06674C55.7963 2.685 56.284 1.06179 56.278 -0.597008C56.278 -1.69274 56.0618 -2.77774 55.6417 -3.79006C55.2216 -4.80239 54.6058 -5.72221 53.8295 -6.49701C53.0532 -7.27181 52.1316 -7.88641 51.1173 -8.30573C50.103 -8.72505 49.016 -8.94086 47.9181 -8.94086Z" fill="#000116"/>
<path d="M47.918 -6.94423C49.1687 -6.94421 50.3914 -6.5744 51.4318 -5.88146C52.4722 -5.18852 53.2836 -4.2035 53.7636 -3.05073C54.2436 -1.89796 54.3708 -0.62911 54.129 0.595699C53.8871 1.82051 53.2872 2.94638 52.4049 3.83121C51.5226 4.71604 50.3974 5.32018 49.1714 5.56738C47.9454 5.81458 46.6736 5.69375 45.5163 5.22016C44.359 4.74657 43.3683 3.94144 42.669 2.90638C41.9698 1.87132 41.5934 0.652709 41.5875 -0.595639C41.5874 -1.42396 41.7514 -2.24412 42.0699 -3.009C42.3884 -3.77389 42.8552 -4.46843 43.4434 -5.05273C44.0317 -5.63704 44.7298 -6.09959 45.4977 -6.41382C46.2655 -6.72804 47.088 -6.88776 47.918 -6.88377M47.918 -7.21631C46.606 -7.21631 45.3235 -6.82802 44.2326 -6.10053C43.1418 -5.37304 42.2916 -4.33903 41.7895 -3.12926C41.2874 -1.91949 41.1561 -0.5883 41.412 0.695985C41.668 1.98027 42.2997 3.15997 43.2274 4.08589C44.1551 5.0118 45.3371 5.64236 46.6238 5.89782C47.9106 6.15328 49.2444 6.02217 50.4565 5.52107C51.6686 5.01996 52.7046 4.17137 53.4334 3.08261C54.1623 1.99384 54.5514 0.713806 54.5514 -0.595639C54.5514 -2.35155 53.8525 -4.03555 52.6085 -5.27717C51.3645 -6.51878 49.6772 -7.21631 47.918 -7.21631Z" fill="#000116"/>
<path d="M39.9821 12.585H25.9581V31.7819H39.9821V12.585Z" fill="#F15D21"/>
<path d="M39.0734 13.5216V30.814H26.9576V13.5216H39.0734ZM40.0124 12.5542H25.9581V31.7511H39.9821V12.5542H40.0124Z" fill="#000116"/>
<path d="M34.3178 6.62939H20.2938V25.8263H34.3178V6.62939Z" fill="#F15D21"/>
<path d="M33.3788 7.56657V24.8589H21.263V7.56657H33.3788ZM34.3481 6.62939H20.2938V25.7961H34.3481V6.62939Z" fill="#000116"/>
</g>
<path d="M45.4646 1.8527V23.0147H23.6864V1.8527H45.4646ZM46.4339 0.915527H22.7474V24.0728H46.4339V0.915527Z" fill="#000116"/>
<mask id="mask3_145_487" style="mask-type:luminance" maskUnits="userSpaceOnUse" x="0" y="23" width="24" height="24">
<path d="M23.5653 23.2261H0.121216V46.1717H23.5653V23.2261Z" fill="white"/>
</mask>
<g mask="url(#mask3_145_487)">
<path d="M25.4432 20.0215H-3.9679V49.3762H25.4432V20.0215Z" fill="#EDB324"/>
<path d="M24.4739 20.9587V48.439H-3.02903V20.9587H24.4739ZM25.4431 20.0215H-3.99829V49.3762H25.4431V20.0215Z" fill="#000116"/>
<path d="M10.8437 26.9754L10.3894 24.8592L32.4402 18.3896L33.5912 23.529L10.8437 26.9754Z" fill="#CF3827"/>
<path d="M31.7435 19.5687L32.4401 22.5918L11.5706 25.6149V25.2522L31.8344 19.2059M32.531 18.0269L10.4802 24.4964L10.9346 26.6126L33.5911 23.5894L32.4401 18.4803L32.531 18.0269Z" fill="#000116"/>
<path d="M33.8335 32.3255H33.6518L10.662 29.635V27.1862H10.8134L34.0758 26.6118V26.763L33.8335 32.3255ZM10.9649 29.3024L33.5306 31.8116L33.7426 26.9141L11.0558 27.4583L10.9649 29.3024Z" fill="#000116"/>
<path d="M10.1166 32.1456L10.7527 30.1201L33.1064 35.5013L31.5313 40.5197L10.1166 32.1456Z" fill="#CF3827"/>
<path d="M11.3889 31.2078L31.8949 36.1658L30.9256 39.1889L11.2677 31.5404V31.1474M10.6316 30.0288L9.99554 32.0845L31.4102 40.4284L33.0156 35.5007L10.6619 30.0893L10.6316 30.0288Z" fill="#000116"/>
<path d="M27.3211 48.2587L8.54163 34.4732L9.84408 32.3872L30.1987 43.4519L27.3211 48.2587ZM8.96569 34.3825L27.1394 47.8052L29.9866 43.6635L10.0561 32.8104L8.96569 34.3825Z" fill="#000116"/>
<path d="M6.87567 36.2866L8.45073 34.8354L25.11 50.6465L21.2329 54.2138L6.87567 36.2866Z" fill="#CF3827"/>
<path d="M8.45085 36.1051L23.5956 50.6162L21.233 52.8231L8.02679 36.3772L8.32968 36.1051M8.32968 34.8052L6.75464 36.2563L21.1119 54.1835L25.1101 50.7976L8.45085 34.9563L8.32968 34.8052Z" fill="#000116"/>
<path d="M13.7212 58.8096L4.36176 37.4964L6.51231 36.3477V36.4988L18.6281 56.2097L13.7212 58.8096ZM4.63436 37.6476L13.7212 58.4166L18.0829 56.119L6.26999 36.8011L4.63436 37.6476Z" fill="#000116"/>
<path d="M1.99915 38.2215L4.11942 37.7681L10.6014 59.7765L5.45215 60.9253L1.99915 38.2215Z" fill="#CF3827"/>
<path d="M3.45296 38.857L9.51087 59.0818L6.48192 59.7771L3.45296 38.9477H3.84672M4.48281 37.8291L2.39282 38.3128L5.84583 61.0166L10.6013 59.8678L4.08904 37.8291H4.48281Z" fill="#000116"/>
<path d="M2.24143 61.4084L-3.33185 61.1665V60.9851L-0.757242 38.0093H1.69622L2.24143 61.4084ZM-3.02896 60.8642L1.90824 61.0758L1.36303 38.4325H-0.51492L-3.02896 60.8642Z" fill="#000116"/>
<path d="M0.78746 39.0377C6.79297 39.0377 11.6614 34.1786 11.6614 28.1846C11.6614 22.1906 6.79297 17.3315 0.78746 17.3315C-5.21805 17.3315 -10.0865 22.1906 -10.0865 28.1846C-10.0865 34.1786 -5.21805 39.0377 0.78746 39.0377Z" fill="#CF3827"/>
<path d="M0.787565 18.268C2.12616 18.2709 3.45037 18.5437 4.68068 19.0701C5.911 19.5965 7.02205 20.3656 7.94712 21.3312C8.87219 22.2969 9.59222 23.4391 10.0639 24.6895C10.5357 25.9398 10.7494 27.2723 10.6922 28.6071C10.6471 29.9077 10.3394 31.1859 9.78775 32.365C9.23607 33.5442 8.45168 34.6001 7.48155 35.4697C5.66422 37.1605 3.27202 38.1004 0.787565 38.0998C-1.84735 38.0998 -4.37435 37.0551 -6.23752 35.1955C-8.10069 33.3359 -9.1474 30.8138 -9.1474 28.1839C-9.1474 25.554 -8.10069 23.0319 -6.23752 21.1723C-4.37435 19.3127 -1.84735 18.268 0.787565 18.268ZM0.787565 17.3006C-2.00108 17.4474 -4.62701 18.6565 -6.5489 20.6786C-8.47079 22.7007 -9.54218 25.3816 -9.54218 28.1688C-9.54218 30.9559 -8.47079 33.6369 -6.5489 35.659C-4.62701 37.681 -2.00108 38.8901 0.787565 39.037C3.53813 39.006 6.17222 37.9241 8.14793 36.0138C9.76775 34.5363 10.9018 32.6042 11.401 30.4714C11.9002 28.3386 11.7412 26.105 10.9449 24.0641C10.1486 22.0232 8.75223 20.2706 6.93937 19.0364C5.12651 17.8023 2.98196 17.1445 0.787565 17.1494V17.3006Z" fill="#000116"/>
</g>
<path d="M22.7475 24.0729V45.2348H0.93898V24.0729H22.7475ZM23.6864 23.1055H0V46.2627H23.6864V23.1055Z" fill="#000116"/>
<path d="M62.0936 12.7363H66.8793L73.6642 25.2824L80.4187 12.7363H85.053V35.0169H80.2673V20.8686L74.9969 30.5729H71.968L66.8793 20.8686V35.0169H62.0936V12.7363Z" fill="#000116"/>
<path d="M90.1418 12.7363H105.711V16.6966H94.9579V21.6546H104.802V25.4637H94.9579V31.0566H105.711V35.0169H90.1418V12.7363Z" fill="#000116"/>
<path d="M121.703 25.887C121.004 26.3175 120.25 26.653 119.462 26.8846C118.376 27.1794 117.255 27.3219 116.13 27.3079C115.153 27.3911 114.168 27.276 113.236 26.9695C112.305 26.6629 111.445 26.1713 110.708 25.5242C110.059 24.7485 109.57 23.8524 109.268 22.8875C108.967 21.9226 108.859 20.9077 108.951 19.9012V12.7363H113.737V19.2663C113.648 20.3475 113.96 21.4237 114.616 22.2894C114.992 22.6262 115.433 22.8829 115.912 23.044C116.391 23.2052 116.898 23.2673 117.402 23.2266C118.279 23.2417 119.151 23.0983 119.977 22.8034C120.579 22.5916 121.158 22.318 121.703 21.9871V12.7363H126.489V35.0169H121.703V25.887Z" fill="#000116"/>
<path d="M136.848 16.6966H129.67V12.7363H148.782V16.6966H141.634V35.0169H136.848V16.6966Z" fill="#000116"/>
<path d="M162.11 30.4519H153.871L152.175 35.0169H147.51L155.809 12.7363H160.595L168.864 35.0169H163.836L162.11 30.4519ZM155.325 26.6125H160.686L158.02 18.8733L155.325 26.6125Z" fill="#000116"/>
<path d="M174.771 16.6966H167.592V12.7363H186.735V16.6966H179.556V35.0169H174.771V16.6966Z" fill="#000116"/>
<path d="M189.915 12.7363H205.666V16.6966H194.853V21.6546H204.697V25.4637H194.853V31.0566H205.666V35.0169H189.915V12.7363Z" fill="#000116"/>
<path d="M209.513 35.4099H208.877C208.666 35.4438 208.451 35.4438 208.241 35.4099V31.0263H208.695C209.185 31.0436 209.669 30.9175 210.088 30.6635C210.586 30.2611 210.92 29.6915 211.027 29.0613C211.326 27.8828 211.509 26.6778 211.572 25.4637C211.572 23.8615 211.724 21.7453 211.724 19.0849V12.7363H227.989V35.0169H223.234V16.6966H216.267V19.7198C216.298 22.4368 216.157 25.1529 215.843 27.852C215.647 29.4996 215.208 31.1091 214.541 32.6286C214.101 33.5801 213.355 34.3572 212.421 34.8355C211.501 35.2226 210.511 35.418 209.513 35.4099Z" fill="#000116"/>
<path d="M233.108 12.7363H248.738V16.6966H237.924V21.6546H247.769V25.4637H237.924V31.0566H248.738V35.0169H233.108V12.7363Z" fill="#000116"/>
<path d="M252.887 12.7358H257.643V27.5492L267.366 12.7358H272V35.0164H267.214V20.2332L257.461 35.0164H252.887V12.7358ZM262.428 11.4661C260.781 11.6075 259.143 11.1093 257.855 10.0755C257.334 9.55013 256.932 8.91939 256.676 8.22578C256.42 7.53217 256.316 6.79183 256.371 6.05469H260.399C260.328 6.79778 260.509 7.54316 260.914 8.17089C261.111 8.36838 261.348 8.52173 261.609 8.62076C261.87 8.7198 262.15 8.76225 262.428 8.74528C262.712 8.76466 262.997 8.72345 263.263 8.6244C263.529 8.52535 263.771 8.37074 263.973 8.17089C264.378 7.54316 264.559 6.79778 264.488 6.05469H268.486C268.538 6.78896 268.435 7.52582 268.184 8.21816C267.934 8.9105 267.542 9.54307 267.032 10.0755C265.739 11.1248 264.089 11.634 262.428 11.4963V11.4661Z" fill="#000116"/>
</svg>
