<svg width="88" height="86" viewBox="0 0 88 86" fill="none" xmlns="http://www.w3.org/2000/svg">
<path d="M41.1485 38.4663C42.3442 38.4663 43.513 38.1117 44.5071 37.4474C45.5013 36.7832 46.2762 35.839 46.7337 34.7343C47.1913 33.6297 47.311 32.4142 47.0777 31.2415C46.8445 30.0688 46.2687 28.9916 45.4232 28.1461C44.5778 27.3007 43.5006 26.7249 42.3279 26.4916C41.1552 26.2584 39.9397 26.3781 38.835 26.8356C37.7304 27.2932 36.7862 28.0681 36.1219 29.0622C35.4576 30.0564 35.1031 31.2252 35.1031 32.4209C35.1031 34.0242 35.74 35.5619 36.8737 36.6956C38.0075 37.8293 39.5452 38.4663 41.1485 38.4663ZM41.1485 29.3982C41.7463 29.3982 42.3307 29.5754 42.8278 29.9076C43.3249 30.2397 43.7123 30.7118 43.9411 31.2641C44.1699 31.8165 44.2297 32.4242 44.1131 33.0106C43.9965 33.5969 43.7086 34.1355 43.2859 34.5582C42.8631 34.981 42.3245 35.2689 41.7382 35.3855C41.1518 35.5021 40.5441 35.4423 39.9918 35.2135C39.4394 34.9847 38.9673 34.5973 38.6352 34.1002C38.3031 33.6031 38.1258 33.0187 38.1258 32.4209C38.1258 31.6192 38.4443 30.8504 39.0111 30.2835C39.578 29.7166 40.3468 29.3982 41.1485 29.3982Z" fill="black"/>
<path d="M53.2393 50.5571C53.2393 51.7527 53.5939 52.9215 54.2582 53.9157C54.9224 54.9099 55.8666 55.6847 56.9712 56.1423C58.0759 56.5998 59.2914 56.7196 60.4641 56.4863C61.6368 56.253 62.714 55.6773 63.5595 54.8318C64.4049 53.9863 64.9807 52.9092 65.214 51.7365C65.4472 50.5638 65.3275 49.3482 64.8699 48.2436C64.4124 47.1389 63.6375 46.1948 62.6434 45.5305C61.6492 44.8662 60.4804 44.5117 59.2847 44.5117C57.6814 44.5117 56.1437 45.1486 55.01 46.2823C53.8762 47.416 53.2393 48.9537 53.2393 50.5571ZM62.3074 50.5571C62.3074 51.1549 62.1301 51.7393 61.798 52.2364C61.4659 52.7335 60.9938 53.1209 60.4415 53.3497C59.8891 53.5785 59.2814 53.6383 58.695 53.5217C58.1087 53.4051 57.5701 53.1172 57.1473 52.6944C56.7246 52.2717 56.4367 51.7331 56.3201 51.1468C56.2035 50.5604 56.2633 49.9527 56.4921 49.4003C56.7209 48.848 57.1083 48.3759 57.6054 48.0438C58.1025 47.7116 58.6869 47.5344 59.2847 47.5344C60.0864 47.5344 60.8552 47.8528 61.4221 48.4197C61.989 48.9866 62.3074 49.7554 62.3074 50.5571Z" fill="black"/>
<path d="M61.2381 28.3296L37.0569 52.5107L39.1943 54.6481L63.3754 30.4669L61.2381 28.3296Z" fill="black"/>
<path d="M7.8988 80.7841H19.9896C20.3904 80.7841 20.7749 80.6249 21.0583 80.3414C21.3417 80.058 21.501 79.6736 21.501 79.2727V78.6969L32.7847 83.3821C38.9359 85.8944 45.8128 85.9706 52.0182 83.5952L75.3655 74.6918C76.0502 74.4317 76.676 74.0374 77.2062 73.532C77.7364 73.0267 78.1604 72.4206 78.4532 71.7492C78.7555 71.0684 78.919 70.3341 78.934 69.5893C78.9491 68.8445 78.8154 68.1042 78.5408 67.4117C78.0467 66.1609 77.1103 65.1353 75.9096 64.5295V28.6969L80.7625 31.9312C81.2712 32.2703 81.8417 32.5059 82.4414 32.6245C83.0412 32.7431 83.6584 32.7424 84.2579 32.6225C84.8573 32.5026 85.4273 32.2657 85.9353 31.9255C86.4432 31.5853 86.8792 31.1484 87.2183 30.6397C87.5574 30.131 87.7929 29.5606 87.9116 28.9608C88.0302 28.3611 88.0295 27.7439 87.9096 27.1444C87.7896 26.5449 87.5528 25.9749 87.2126 25.467C86.8724 24.9591 86.4355 24.5231 85.9268 24.184L75.6073 17.3074H75.9096V6.7279C75.9096 6.32706 75.7504 5.94265 75.4669 5.65921C75.1835 5.37578 74.7991 5.21655 74.3982 5.21655H66.8415C66.4406 5.21655 66.0562 5.37578 65.7728 5.65921C65.4894 5.94265 65.3301 6.32706 65.3301 6.7279V10.4534L51.0554 0.931868C50.8071 0.766165 50.5152 0.677734 50.2166 0.677734C49.9181 0.677734 49.6262 0.766165 49.3778 0.931868L14.5064 24.184C13.4791 24.8688 12.7659 25.9337 12.5237 27.1444C12.2815 28.3551 12.5301 29.6124 13.215 30.6397C13.8998 31.6671 14.9647 32.3803 16.1754 32.6225C17.3861 32.8647 18.6434 32.616 19.6707 31.9312L24.5237 28.6969V58.1138H21.501C21.501 57.713 21.3417 57.3286 21.0583 57.0451C20.7749 56.7617 20.3904 56.6025 19.9896 56.6025H7.8988C7.49796 56.6025 7.11354 56.7617 6.83011 57.0451C6.54668 57.3286 6.38744 57.713 6.38744 58.1138H0.342041V61.1365H6.38744V76.25H0.342041V79.2727H6.38744C6.38744 79.6736 6.54668 80.058 6.83011 80.3414C7.11354 80.6249 7.49796 80.7841 7.8988 80.7841ZM68.3528 8.23925H72.8869V15.4937L68.3528 12.471V8.23925ZM17.9946 29.4163C17.7485 29.5801 17.4626 29.6741 17.1673 29.6882C16.872 29.7023 16.5784 29.636 16.3178 29.4964C16.0572 29.3568 15.8394 29.1491 15.6875 28.8955C15.5357 28.6418 15.4555 28.3517 15.4555 28.0561C15.4551 27.787 15.5212 27.5219 15.6481 27.2846C15.7749 27.0473 15.9585 26.845 16.1825 26.6959L50.2166 4.00747L84.2507 26.6989C84.4747 26.848 84.6583 27.0503 84.7852 27.2876C84.912 27.525 84.9782 27.79 84.9777 28.0591C84.9777 28.3547 84.8975 28.6448 84.7457 28.8985C84.5938 29.1521 84.376 29.3598 84.1154 29.4994C83.8548 29.639 83.5612 29.7053 83.2659 29.6912C82.9706 29.6771 82.6847 29.5831 82.4386 29.4193L51.0554 8.49316C50.8071 8.32745 50.5152 8.23902 50.2166 8.23902C49.9181 8.23902 49.6262 8.32745 49.3778 8.49316L17.9946 29.4163ZM50.2166 11.5642L72.8869 26.6777V63.9476C72.3401 63.9937 71.8035 64.1227 71.2954 64.33L61.4958 68.4908C61.5243 68.3075 61.543 68.1229 61.5518 67.9376C61.5518 66.5347 60.9944 65.1892 60.0024 64.1972C59.0104 63.2052 57.6649 62.6479 56.262 62.6479H44.5385C43.3524 62.6461 42.1828 62.3699 41.1213 61.8408C36.8851 59.7306 32.2696 58.4891 27.5464 58.1894V26.6777L50.2166 11.5642ZM25.3322 61.1365C30.3435 61.1424 35.2853 62.3089 39.7702 64.5446C41.2511 65.2838 42.8833 65.6692 44.5385 65.6706H56.262C56.8173 65.6742 57.3519 65.8814 57.7645 66.253C58.1771 66.6246 58.439 67.1346 58.5005 67.6865C58.562 68.2383 58.4188 68.7935 58.0981 69.2468C57.7775 69.7001 57.3016 70.02 56.7608 70.1457C56.5628 70.1638 56.3693 70.2046 56.1683 70.2046H38.1258V73.2273H56.1683C56.2001 73.2273 56.2303 73.2273 56.262 73.2273C56.2923 73.2273 56.321 73.2183 56.3527 73.2183C57.5522 73.1989 58.7366 72.948 59.8409 72.4792L72.4773 67.1154C72.7752 66.9883 73.0957 66.9227 73.4196 66.9227C73.7435 66.9227 74.0641 66.9883 74.362 67.1154C74.6718 67.2462 74.952 67.4383 75.1858 67.68C75.4195 67.9218 75.602 68.2084 75.7222 68.5225C75.8493 68.8432 75.9112 69.186 75.9042 69.5309C75.8972 69.8758 75.8214 70.2158 75.6814 70.5311C75.5492 70.8365 75.3573 71.1125 75.117 71.3427C74.8766 71.5729 74.5927 71.7528 74.2819 71.8717L50.9345 80.7735C45.4485 82.875 39.3683 82.8096 33.9288 80.5906L21.501 75.4233V61.1365H25.3322ZM9.41015 59.6252H18.4783V77.7614H9.41015V59.6252Z" fill="black"/>
<path d="M15.4556 71.716H12.4329V74.7387H15.4556V71.716Z" fill="black"/>
</svg>
