<svg width="73" height="84" viewBox="0 0 73 84" fill="none" xmlns="http://www.w3.org/2000/svg">
<path d="M10.9577 6.33681L12.0894 3.80381C12.2368 3.4594 12.4806 3.16492 12.7915 2.95582C13.1023 2.74671 13.467 2.63189 13.8415 2.62516C14.0917 2.62525 14.339 2.6793 14.5664 2.78363L31.9785 10.7031L43.649 13.1272L15.6531 0.394C15.0844 0.134404 14.4666 3.79231e-05 13.8414 0C12.9598 0.00642705 12.099 0.267908 11.3628 0.752872C10.6266 1.23784 10.0465 1.92555 9.69263 2.73296L8.27264 5.91145C8.7195 5.91702 9.16481 5.9652 9.60251 6.05533L10.9577 6.33681Z" fill="black"/>
<path d="M5.11607 18.3765L6.30803 12.7022C6.39436 12.2718 6.62533 11.8839 6.96257 11.6028C7.29981 11.3218 7.72304 11.1646 8.16197 11.1573C8.28729 11.1574 8.41227 11.1704 8.53496 11.1959L43.1043 18.3765H56.0124L9.06878 8.6256C8.77049 8.56348 8.46662 8.53214 8.16193 8.53207C7.12045 8.53923 6.11298 8.90367 5.30794 9.56446C4.5029 10.2253 3.94908 11.1424 3.73905 12.1625L2.36316 18.7123C3.05768 18.4896 3.78261 18.3763 4.51195 18.3765L5.11607 18.3765Z" fill="black"/>
<path d="M56.3406 48.5657H52.5011C52.153 48.5657 51.8191 48.704 51.573 48.9501C51.3268 49.1963 51.1885 49.5301 51.1885 49.8783C51.1885 50.2264 51.3268 50.5602 51.573 50.8064C51.8191 51.0525 52.153 51.1908 52.5011 51.1908H57.3141C57.6116 51.1908 57.9002 51.0898 58.1327 50.9043C58.3652 50.7188 58.5279 50.4599 58.594 50.1699C59.447 46.4257 63.6089 47.0486 64.0754 47.13C64.2648 47.1649 64.4595 47.1578 64.6458 47.1091C64.8321 47.0603 65.0054 46.9712 65.1534 46.848C65.3014 46.7249 65.4205 46.5706 65.5022 46.3963C65.5839 46.222 65.6263 46.0318 65.6264 45.8392V32.9159C65.6263 32.7233 65.5839 32.5332 65.5022 32.3588C65.4205 32.1845 65.3014 32.0303 65.1534 31.9071C65.0054 31.7839 64.8321 31.6948 64.6458 31.6461C64.4595 31.5973 64.2648 31.5902 64.0754 31.6251C63.887 31.6591 59.4688 32.4288 58.594 28.5853C58.5279 28.2953 58.3652 28.0363 58.1327 27.8508C57.9002 27.6654 57.6116 27.5643 57.3141 27.5643H52.5011C52.153 27.5643 51.8191 27.7026 51.573 27.9487C51.3268 28.1949 51.1885 28.5288 51.1885 28.8769C51.1885 29.225 51.3268 29.5589 51.573 29.805C51.8191 30.0512 52.153 30.1895 52.5011 30.1895H56.3406C57.5763 33.4504 60.6595 34.3349 63.0013 34.3394V44.4158C60.6595 44.4209 57.5763 45.3054 56.3406 48.5657Z" fill="black"/>
<path d="M59.114 71.4192L60.0666 71.0131C60.2548 70.9393 60.4264 70.8285 60.5711 70.6874C60.7159 70.5462 60.8309 70.3775 60.9095 70.1912C60.988 70.0049 61.0285 69.8048 61.0285 69.6026C61.0285 69.4004 60.988 69.2002 60.9095 69.0139L57.7533 61.9904C57.6375 61.7337 57.4534 61.5137 57.2212 61.3544L56.1375 56.1724C56.0756 55.8774 55.9142 55.6126 55.6802 55.4225C55.4462 55.2324 55.154 55.1285 54.8525 55.1284H30.1389L28.5021 52.9153L30.2465 44.413C30.4558 43.4098 30.2899 42.3647 29.7804 41.4756C29.2709 40.5864 28.4531 39.9149 27.4818 39.5882C26.5259 39.2744 25.4885 39.3191 24.5632 39.7139C23.6378 40.1088 22.8877 40.8268 22.4528 41.734L17.1931 52.6551C17.0637 52.9238 17.0296 53.2284 17.0963 53.5191L19.5797 64.3197C19.6217 64.5022 19.7022 64.6735 19.8158 64.8223C19.9294 64.9711 20.0736 65.0939 20.2385 65.1824L32.2593 71.6295C32.1187 71.9895 32.1262 72.3905 32.2801 72.745L35.4363 79.7684C35.5669 80.0564 35.7786 80.3001 36.0454 80.4697C36.3122 80.6394 36.6227 80.7277 36.9389 80.7238C37.1648 80.7238 37.3886 80.6786 37.5968 80.5907L38.8724 80.047L40.1257 83.1804C40.2591 83.5004 40.512 83.7558 40.8307 83.8923C41.1494 84.0288 41.5087 84.0358 41.8324 83.9117C42.1556 83.7822 42.4142 83.5297 42.5513 83.2097C42.6884 82.8897 42.6929 82.5283 42.5636 82.205L41.2886 79.0171L56.6969 72.4494L61.8151 83.2548C61.969 83.5648 62.2373 83.8032 62.5633 83.9196C62.8894 84.036 63.2478 84.0214 63.5634 83.879C63.878 83.7299 64.1204 83.4619 64.2375 83.134C64.3545 82.8062 64.3366 82.4452 64.1876 82.1306L59.114 71.4192ZM19.7579 53.3794L24.8177 42.8735C24.9749 42.5405 25.2481 42.2761 25.5862 42.1299C25.9243 41.9838 26.3041 41.9658 26.6544 42.0795C27.016 42.2034 27.3196 42.4556 27.5078 42.7883C27.6959 43.121 27.7555 43.5112 27.6754 43.8849L25.8129 52.9608C25.7759 53.1414 25.7773 53.3278 25.817 53.5078C25.8568 53.6877 25.934 53.8573 26.0436 54.0055L28.4226 57.2216C28.5446 57.3866 28.7036 57.5206 28.8868 57.613C29.07 57.7054 29.2723 57.7536 29.4775 57.7536H53.7861L54.5896 61.5957L34.8186 70.023L22.0048 63.1507L19.7579 53.3794ZM37.4328 77.807L35.1531 72.7341L55.7568 63.9519L58.0364 69.0248L37.4328 77.807Z" fill="black"/>
<path d="M36.0946 52.5036C38.6112 52.5065 41.0756 51.7858 43.1942 50.4275C45.3128 49.0691 46.9962 47.1304 48.0439 44.8422C49.0917 42.554 49.4595 40.0129 49.1036 37.5215C48.7478 35.0302 47.6832 32.6937 46.0367 30.7903C44.3903 28.887 42.2313 27.4971 39.8172 26.7863C37.403 26.0754 34.8354 26.0736 32.4202 26.7809C30.005 27.4883 27.8441 28.8751 26.1949 30.776C24.5457 32.677 23.4778 35.012 23.1183 37.5028C23.9932 37.0547 24.955 36.802 25.9372 36.7622C26.4727 34.6872 27.6307 32.826 29.2554 31.4286C30.8801 30.0312 32.8937 29.1648 35.0255 28.9457C37.1572 28.7267 39.3049 29.1655 41.1799 30.2033C43.0548 31.241 44.5671 32.8279 45.5134 34.7507C46.4597 36.6734 46.7946 38.8397 46.4732 40.9585C46.1518 43.0772 45.1895 45.0467 43.7155 46.6023C42.2415 48.1579 40.3267 49.2249 38.2283 49.6599C36.13 50.0949 33.9487 49.8771 31.9779 49.0357L31.4437 51.6396C32.9285 52.2081 34.5046 52.5009 36.0946 52.5036Z" fill="black"/>
<path d="M67.6772 21.0017H4.51198C3.30452 21.0127 2.15088 21.5029 1.30478 22.3644C0.458689 23.226 -0.0105807 24.3883 0.000181096 25.5957V53.1601C-0.0105737 54.3675 0.458698 55.5298 1.30479 56.3913C2.15089 57.2529 3.30452 57.743 4.51198 57.7541H15.3763L14.7727 55.1289H4.51198C4.00096 55.1173 3.5154 54.9034 3.16174 54.5344C2.80807 54.1653 2.61514 53.6711 2.62523 53.16V25.5957C2.61515 25.0847 2.80809 24.5904 3.16175 24.2214C3.51541 23.8523 4.00096 23.6385 4.51198 23.6268H67.6772C68.1883 23.6385 68.6738 23.8523 69.0275 24.2214C69.3811 24.5905 69.5741 25.0847 69.564 25.5957V53.1601C69.5741 53.6711 69.3811 54.1653 69.0275 54.5344C68.6738 54.9034 68.1883 55.1172 67.6772 55.1289H58.5539C58.6162 55.2941 58.6673 55.4632 58.7068 55.6352L59.15 57.7541H67.6772C68.8847 57.743 70.0383 57.2529 70.8844 56.3913C71.7305 55.5298 72.1998 54.3675 72.189 53.16V25.5957C72.1998 24.3882 71.7305 23.2259 70.8844 22.3644C70.0383 21.5029 68.8847 21.0127 67.6772 21.0017Z" fill="black"/>
<path d="M15.8485 30.1895H19.688C20.0356 30.1887 20.3687 30.0501 20.6143 29.804C20.8598 29.5579 20.9977 29.2245 20.9977 28.8769C20.9977 28.5293 20.8598 28.1959 20.6143 27.9498C20.3687 27.7037 20.0356 27.5651 19.688 27.5643H14.875C14.5776 27.5643 14.2889 27.6654 14.0564 27.8508C13.8239 28.0363 13.6613 28.2953 13.5951 28.5853C12.7421 32.3301 8.58154 31.7084 8.11369 31.6251C7.92434 31.5902 7.72962 31.5973 7.54334 31.6461C7.35706 31.6948 7.18377 31.7839 7.03578 31.9071C6.88778 32.0303 6.76869 32.1845 6.68695 32.3588C6.6052 32.5332 6.56281 32.7233 6.56277 32.9159V45.8392C6.56281 46.0318 6.6052 46.222 6.68694 46.3963C6.76868 46.5707 6.88778 46.7249 7.03578 46.8481C7.18378 46.9712 7.35706 47.0603 7.54334 47.1091C7.72963 47.1578 7.92435 47.165 8.11371 47.13C8.30085 47.0954 12.7197 46.3263 13.5952 50.1699C13.6613 50.4599 13.8239 50.7188 14.0564 50.9043C14.289 51.0898 14.5776 51.1908 14.875 51.1908H14.985L16.2493 48.5657H15.8485C14.6129 45.3047 11.5296 44.4203 9.18782 44.4158V34.3394C11.5296 34.3342 14.6129 33.4498 15.8485 30.1895Z" fill="black"/>
</svg>
