<svg width="86" height="86" viewBox="0 0 86 86" fill="none" xmlns="http://www.w3.org/2000/svg">
<path d="M75.4306 80.0363C75.3559 80.5846 74.8881 80.9823 74.3512 80.9823C74.3017 80.9823 74.2522 80.9785 74.2018 80.972L63.3846 79.4899C63.3445 79.4843 63.3043 79.4777 63.2642 79.4675C63.2614 79.4665 63.2586 79.4665 63.2567 79.4656C63.2548 79.4637 63.253 79.4637 63.253 79.4637L63.2501 79.4628C63.2483 79.4618 63.2473 79.4618 63.2455 79.4618C63.2436 79.4609 63.2408 79.46 63.2389 79.46C63.2389 79.46 63.2352 79.46 63.2324 79.4581C63.2305 79.4581 63.2287 79.4572 63.2287 79.4572C63.2277 79.4553 63.2268 79.4572 63.2259 79.4553C63.224 79.4553 63.2221 79.4544 63.2221 79.4544C62.9663 79.3814 62.7357 79.2139 62.5872 78.9697L62.5863 78.9669C62.5779 78.9547 62.5704 78.9407 62.5629 78.9276C62.4453 78.7115 62.407 78.4719 62.4406 78.2446L63.9196 67.404C64.0009 66.8052 64.5471 66.387 65.1493 66.4684C65.746 66.5507 66.1643 67.1018 66.0821 67.7006L64.914 76.2582C82.3682 64.7935 88.0714 41.447 77.5081 23.1138C68.6966 7.82137 51.2602 0.238803 34.1133 4.2509C33.525 4.38564 32.9396 4.02166 32.8023 3.43407C32.6651 2.84554 33.0302 2.25795 33.6175 2.12041C51.7046 -2.11157 70.1028 5.88736 79.3971 22.0209C90.4318 41.1729 84.6408 65.5103 66.6508 77.7309L74.4969 78.805C75.0944 78.8864 75.5128 79.4385 75.4306 80.0363ZM51.8877 81.7505C34.7426 85.7635 17.3044 78.18 8.49374 62.8876C-2.07042 44.5534 3.63277 21.2059 21.085 9.7404L19.9179 18.2979C19.8366 18.8967 20.254 19.4478 20.8516 19.5302C21.4473 19.6088 21.9991 19.1933 22.0804 18.5945L23.5594 7.754C23.5771 7.6333 23.5743 7.50886 23.551 7.38629C23.55 7.38816 23.551 7.38442 23.551 7.38442C23.55 7.38255 23.55 7.38255 23.55 7.38255C23.523 7.24594 23.4697 7.11775 23.3969 7.0036C23.3138 6.87448 23.2074 6.76875 23.0869 6.68829C22.9655 6.60689 22.8264 6.54888 22.6751 6.52081C22.6555 6.518 22.6359 6.51519 22.6163 6.51238L11.7991 5.02937C11.2043 4.94984 10.6516 5.3662 10.5703 5.96503C10.4891 6.56385 10.9065 7.11495 11.5041 7.19729L19.3492 8.27142C1.35915 20.4911 -4.43181 44.8285 6.60295 63.9805C14.2408 77.2378 28.0235 85 42.7306 85C45.9212 85 49.1584 84.6342 52.3825 83.88C52.9698 83.7425 53.334 83.1549 53.1977 82.5664C53.0604 81.9788 52.4712 81.6129 51.8877 81.7505ZM67.8245 43.0002C67.8245 56.716 56.6889 67.8747 43.0014 67.8747C29.3139 67.8747 18.1783 56.716 18.1783 43.0002C18.1783 29.2844 29.3139 18.1258 43.0014 18.1258C56.6889 18.1258 67.8245 29.2844 67.8245 43.0002ZM65.6414 43.0002C65.6414 30.4905 55.4853 20.3124 43.0005 20.3124C30.5156 20.3124 20.3604 30.4905 20.3604 43.0002C20.3604 55.51 30.5166 65.688 43.0014 65.688C55.4862 65.688 65.6414 55.51 65.6414 43.0002Z" fill="black" stroke="black"/>
<path d="M41.5571 33.6699C41.8712 32.7805 43.1288 32.7805 43.4429 33.6699L45.0709 38.2793C45.212 38.679 45.5899 38.9463 46.0138 38.9463H51.0926C52.0814 38.9463 52.4704 40.2282 51.6483 40.7777L47.6868 43.4256C47.3068 43.6796 47.1474 44.159 47.2996 44.59L48.8459 48.9682C49.1662 49.8751 48.1468 50.6671 47.3473 50.1326L43.0557 47.2641C42.7193 47.0392 42.2807 47.0392 41.9443 47.2641L37.6527 50.1326C36.8532 50.6671 35.8338 49.8751 36.1541 48.9682L37.7004 44.59C37.8526 44.159 37.6932 43.6796 37.3132 43.4256L33.3517 40.7777C32.5296 40.2282 32.9186 38.9463 33.9074 38.9463H38.9862C39.4101 38.9463 39.788 38.679 39.9291 38.2793L41.5571 33.6699Z" fill="black" stroke="black"/>
</svg>
