<svg width="88" height="85" viewBox="0 0 88 85" fill="none" xmlns="http://www.w3.org/2000/svg">
<path d="M7.55675 80.1064H19.6476C20.0484 80.1064 20.4328 79.9471 20.7162 79.6637C20.9997 79.3803 21.1589 78.9958 21.1589 78.595V78.0192L32.4427 82.7044C38.5938 85.2167 45.4708 85.2929 51.6761 82.9175L75.0235 74.0141C75.7081 73.7539 76.334 73.3596 76.8642 72.8543C77.3944 72.349 77.8183 71.7429 78.1111 71.0715C78.4135 70.3907 78.577 69.6563 78.592 68.9115C78.6071 68.1667 78.4734 67.4264 78.1988 66.7339C77.7046 65.4832 76.7682 64.4575 75.5675 63.8518V28.0192L80.4205 31.2535C80.9292 31.5925 81.4997 31.8281 82.0994 31.9467C82.6991 32.0653 83.3164 32.0647 83.9158 31.9448C84.5153 31.8248 85.0853 31.588 85.5932 31.2478C86.1012 30.9076 86.5371 30.4707 86.8762 29.962C87.2153 29.4533 87.4509 28.8828 87.5695 28.2831C87.6881 27.6834 87.6875 27.0661 87.5675 26.4667C87.4476 25.8672 87.2108 25.2972 86.8706 24.7893C86.5304 24.2813 86.0935 23.8454 85.5848 23.5063L75.2653 16.6296H75.5675V6.05016C75.5675 5.64933 75.4083 5.26491 75.1249 4.98148C74.8414 4.69804 74.457 4.53881 74.0562 4.53881H66.4994C66.0986 4.53881 65.7142 4.69804 65.4308 4.98148C65.1473 5.26491 64.9881 5.64933 64.9881 6.05016V9.77564L50.7134 0.254133C50.465 0.0884302 50.1731 0 49.8746 0C49.576 0 49.2841 0.0884302 49.0358 0.254133L14.1644 23.5063C13.137 24.1911 12.4238 25.256 12.1816 26.4667C11.9394 27.6774 12.1881 28.9347 12.8729 29.962C13.5578 30.9893 14.6226 31.7026 15.8333 31.9448C17.044 32.1869 18.3013 31.9383 19.3287 31.2535L24.1816 28.0192V57.4361H21.1589C21.1589 57.0353 20.9997 56.6508 20.7162 56.3674C20.4328 56.084 20.0484 55.9247 19.6476 55.9247H7.55675C7.15592 55.9247 6.7715 56.084 6.48807 56.3674C6.20463 56.6508 6.0454 57.0353 6.0454 57.4361H0V60.4588H6.0454V75.5723H0V78.595H6.0454C6.0454 78.9958 6.20463 79.3803 6.48807 79.6637C6.7715 79.9471 7.15592 80.1064 7.55675 80.1064ZM68.0108 7.56152H72.5448V14.816L68.0108 11.7933V7.56152ZM17.6526 28.7386C17.4065 28.9024 17.1206 28.9963 16.8253 29.0105C16.53 29.0246 16.2364 28.9583 15.9758 28.8187C15.7152 28.6791 15.4974 28.4714 15.3455 28.2177C15.1937 27.9641 15.1135 27.674 15.1135 27.3783C15.113 27.1092 15.1792 26.8442 15.306 26.6069C15.4329 26.3695 15.6165 26.1673 15.8405 26.0181L49.8746 3.32973L83.9087 26.0212C84.1327 26.1703 84.3163 26.3726 84.4431 26.6099C84.57 26.8472 84.6361 27.1123 84.6356 27.3814C84.6357 27.677 84.5555 27.9671 84.4037 28.2208C84.2518 28.4744 84.034 28.6821 83.7734 28.8217C83.5128 28.9613 83.2192 29.0276 82.9239 29.0135C82.6286 28.9994 82.3427 28.9054 82.0966 28.7416L50.7134 7.81542C50.465 7.64972 50.1731 7.56129 49.8746 7.56129C49.576 7.56129 49.2841 7.64972 49.0358 7.81542L17.6526 28.7386ZM49.8746 10.8865L72.5448 26V63.2699C71.998 63.316 71.4614 63.4449 70.9534 63.6523L61.1538 67.813C61.1823 67.6298 61.2009 67.4451 61.2097 67.2599C61.2097 65.857 60.6524 64.5115 59.6604 63.5195C58.6684 62.5275 57.3229 61.9701 55.92 61.9701H44.1964C43.0104 61.9684 41.8408 61.6921 40.7793 61.1631C36.5431 59.0528 31.9275 57.8113 27.2043 57.5117V26L49.8746 10.8865ZM24.9902 60.4588C30.0014 60.4647 34.9432 61.6312 39.4281 63.8669C40.909 64.606 42.5413 64.9915 44.1964 64.9928H55.92C56.4752 64.9964 57.0098 65.2037 57.4224 65.5752C57.835 65.9468 58.0969 66.4569 58.1584 67.0087C58.2199 67.5606 58.0768 68.1158 57.7561 68.5691C57.4354 69.0224 56.9596 69.3422 56.4187 69.468C56.2207 69.4861 56.0273 69.5269 55.8263 69.5269H37.7838V72.5496H55.8263C55.858 72.5496 55.8882 72.5496 55.92 72.5496C55.9502 72.5496 55.9789 72.5405 56.0107 72.5405C57.2101 72.5212 58.3946 72.2702 59.4989 71.8015L72.1353 66.4377C72.4332 66.3105 72.7537 66.245 73.0776 66.245C73.4015 66.245 73.722 66.3105 74.0199 66.4377C74.3298 66.5685 74.61 66.7605 74.8437 67.0023C75.0775 67.2441 75.2599 67.5307 75.3801 67.8448C75.5073 68.1655 75.5691 68.5083 75.5621 68.8532C75.5551 69.1981 75.4794 69.5381 75.3393 69.8534C75.2072 70.1588 75.0153 70.4347 74.7749 70.665C74.5346 70.8952 74.2507 71.075 73.9398 71.1939L50.5925 80.0958C45.1065 82.1972 39.0263 82.1319 33.5867 79.9129L21.1589 74.7456V60.4588H24.9902ZM9.06811 58.9474H18.1362V77.0837H9.06811V58.9474Z" fill="black"/>
<path d="M15.1135 71.0383H12.0908V74.061H15.1135V71.0383Z" fill="black"/>
</svg>
